<svg xmlns="http://www.w3.org/2000/svg" xmlns:xlink="http://www.w3.org/1999/xlink" viewBox="0 0 361.53 365.3"><defs><style>.cls-1{fill:none;}.cls-2{isolation:isolate;}.cls-3{clip-path:url(#clip-path);}.cls-4{fill:#d5f4f1;}.cls-5{fill:#86999c;}.cls-6{fill:#e0e4f5;}.cls-7{fill:#b53945;}.cls-8{fill:#f2687c;}.cls-9{opacity:0.35;}.cls-10{fill:#fff;}.cls-11{fill:#e84142;}.cls-12{opacity:0.16;}.cls-13,.cls-18,.cls-19,.cls-21{fill:#a3b4b7;}.cls-14{fill:#b4c1c1;}.cls-15{fill:#bcccce;}.cls-16,.cls-28{opacity:0.68;}.cls-17,.cls-28{fill:#687f83;}.cls-18,.cls-20{opacity:0.3;}.cls-18,.cls-20,.cls-21{mix-blend-mode:multiply;}.cls-19{opacity:0.4;mix-blend-mode:screen;}.cls-22{fill:#c7cce2;}.cls-23{fill:#a6b2d2;}.cls-24{fill:#ea3c38;}.cls-25{fill:#fdfdfd;}.cls-26{fill:#7c7b7b;}.cls-27{fill:#faf7d6;}.cls-29{fill:#5e5b5b;}.cls-30{fill:#494949;}.cls-31{clip-path:url(#clip-path-2);}</style><clipPath id="clip-path"><circle class="cls-1" cx="180.77" cy="182.65" r="166.98"/></clipPath><clipPath id="clip-path-2"><rect class="cls-1" x="403.08" y="21.99" width="321.32" height="321.32"/></clipPath></defs><g class="cls-2"><g id="Layer_1" data-name="Layer 1"><g class="cls-3"><rect class="cls-4" x="-29.88" y="-27.77" width="412.85" height="654.89"/><path class="cls-5" d="M141.62,353.26s8.09,14.28,5.16,31.07l75.62,2.81s-3.2-16.3,2.24-29.28C228.76,348,141.62,353.26,141.62,353.26Z"/><path class="cls-6" d="M109.76,223.35c-.07.12-6.83,10.88-9.1,11.86-.37.16,7.94,1,11-2,.06-.06-3.47.35-4.13.37s-1.15,0-1,0c2.67-.64,4.32-3.8,4.53-4.13-2.84,1.92-5,2.47-4.74,2.21C108.65,229.56,109.75,223.45,109.76,223.35Z"/><path class="cls-6" d="M259,220.27c.09.1,8.92,9.24,11.35,9.73.4.08-7.55,2.66-11.14.31-.07,0,3.47-.37,4.12-.49s1.12-.22,1-.23c-2.75-.08-5-2.83-5.29-3.11,3.17,1.29,5.43,1.38,5.09,1.19C261.35,226.12,259,220.37,259,220.27Z"/><circle class="cls-7" cx="178.16" cy="105.63" r="58.79"/><circle class="cls-8" cx="178.27" cy="105.72" r="57.61"/><g class="cls-9"><path class="cls-10" d="M218.06,64.06l-84.37,78.15q1.83,2.23,3.87,4.27L222,68.25Q220.15,66.06,218.06,64.06Z"/><path class="cls-10" d="M232.51,86.26a57.59,57.59,0,0,0-6.42-12.67l-83.52,77.35a57.67,57.67,0,0,0,12.15,7.37Z"/><path class="cls-10" d="M123.79,124.48a57.08,57.08,0,0,0,6.79,13.57l83.57-77.4a57.88,57.88,0,0,0-13-7.82Z"/></g><circle class="cls-7" cx="178.27" cy="105.72" r="51.35"/><circle class="cls-11" cx="178.27" cy="105.72" r="48.96"/><g class="cls-12"><path class="cls-10" d="M130.38,116.36a48.59,48.59,0,0,0,6.27,15.32l70.69-65.47a49.13,49.13,0,0,0-14.8-7.43Z"/><path class="cls-10" d="M211.61,69.74l-71.77,66.47a50.8,50.8,0,0,0,4.11,4.56l71.89-66.59A50.68,50.68,0,0,0,211.61,69.74Z"/><path class="cls-10" d="M226,94.29A49,49,0,0,0,220,80l-70.63,65.41a48.87,48.87,0,0,0,13.8,7Z"/></g><path class="cls-7" d="M158.38,125.35H152c-4.37,0-5.56-2-3.42-5.8l17-29.93q5.63-9.91,11.27-19.81a8.73,8.73,0,0,1,1.12-1.63,2.72,2.72,0,0,1,4.29-.05,7.43,7.43,0,0,1,1.14,1.61q3.41,6,6.78,12a9.26,9.26,0,0,1,0,9.74q-8.4,14.58-16.84,29.14a8.92,8.92,0,0,1-8.32,4.75C162.77,125.33,160.58,125.35,158.38,125.35Z"/><path class="cls-7" d="M199.21,125.35c-3.31,0-6.63,0-10,0s-4.72-2.27-3-5.23q5-8.7,10.06-17.34c1.74-2.94,4.31-2.91,6,.06q5,8.61,9.85,17.29c1.67,3,.38,5.19-3,5.22S202.53,125.35,199.21,125.35Z"/><path class="cls-10" d="M155.38,126.27H149c-4.37,0-5.57-2-3.43-5.8q8.49-15,17-29.93,5.63-9.92,11.27-19.81a8.73,8.73,0,0,1,1.12-1.63,2.72,2.72,0,0,1,4.28-.06,7.62,7.62,0,0,1,1.15,1.61q3.41,6,6.78,12a9.24,9.24,0,0,1,0,9.74q-8.38,14.58-16.83,29.14a9,9,0,0,1-8.32,4.75C159.77,126.25,157.58,126.27,155.38,126.27Z"/><path class="cls-10" d="M196.21,126.27c-3.32,0-6.64,0-10,0s-4.72-2.28-3-5.23q5-8.7,10.05-17.34c1.74-2.94,4.32-2.91,6,.06q5,8.61,9.86,17.29c1.67,3,.38,5.18-3,5.22S199.53,126.26,196.21,126.27Z"/><path class="cls-13" d="M120.66,151.05l-10.52-18.57a6,6,0,0,1-1.09-3.29,4,4,0,0,1,2.07-3,12,12,0,0,1,3.57-1.23c3,1.87,4.19,4.86,5.15,8.26A43.69,43.69,0,0,1,121,143.74l.21,7.38C120.73,151.29,120.92,151.5,120.66,151.05Z"/><path class="cls-14" d="M112.27,129a35.29,35.29,0,0,1-3.15-4.41,7.39,7.39,0,0,1-1-5.17,3.63,3.63,0,0,1,4.69-2.46,8.61,8.61,0,0,1,4.73,4.66,19.76,19.76,0,0,1,1.65,6.87c.13,1.59,1,10.71-1,10.57C117.43,139,113.3,130.39,112.27,129Z"/><path class="cls-15" d="M119.36,108.71c-.07-1.6-1.08.68-2.59,1.21-4.87,1.72-1.82,9.32-2.44,14.46a14.11,14.11,0,0,0,.93,8c1.3,2.59,2.82,5.15,3.25,8,1.06,7.09,1.44,14.55,6.89,19.22s10.84,8.44,17.69,6.3c6.56-3.21,8.72-14.23,3.57-24.58-1.57-3.16-2.4-6.93-1.3-10.28.8-2.42-2.84-4.72-5.38-4.6a5.43,5.43,0,0,0-5,4.86c-.16,2.16,1,4.16,1.7,6.21s.75,4.71-1,6c-5.25-4.55-7.72-7.79-12-17.07a107.19,107.19,0,0,1-3.69-13S119.41,109.72,119.36,108.71Z"/><g class="cls-16"><path class="cls-17" d="M137.3,131c0,2.16.63,2.9,1.32,5s2.11,6.41.35,7.68c-1.39,1-2.3.49-3.28-.07.26-.23,2.42-1.72.95-6-.7-2-1.85-4.06-1.7-6.22a5.46,5.46,0,0,1,5-4.86,6.07,6.07,0,0,1,3.11.82C139.46,125.54,137.25,128.93,137.3,131Z"/><path class="cls-17" d="M119.32,108.24c-4.12,1.39-3.58,11.06-2.35,16.94a30.54,30.54,0,0,0,2.61,7.79c1.3,2.59,3.65,5.15,3.24,8-1.85,13,1.44,14.55,6.89,19.22a19.18,19.18,0,0,0,8.24,4,20.62,20.62,0,0,1-12.59-4.59c-5.45-4.67-6.12-13-7.18-20.13-.43-2.86-1.65-4.52-3-7.11a23.24,23.24,0,0,1-2.37-7.9c-.65-5.16-.58-10.78,2.48-14.44a9.43,9.43,0,0,1,3.91-2.83"/></g><path class="cls-13" d="M240.6,145.68q4.08-9.87,8.14-19.73a6,6,0,0,0,.68-3.4,4,4,0,0,0-2.43-2.72,11.8,11.8,0,0,0-3.69-.78c-2.75,2.22-3.56,5.34-4.09,8.84a42.59,42.59,0,0,0,.14,10.58q.35,3.67.7,7.34C240.56,145.92,240.4,146.16,240.6,145.68Z"/><path class="cls-14" d="M246.2,122.78a35.87,35.87,0,0,0,2.58-4.77,7.45,7.45,0,0,0,.32-5.25,3.63,3.63,0,0,0-5-1.85,8.58,8.58,0,0,0-4.12,5.2,19.47,19.47,0,0,0-.78,7c.06,1.6.37,10.75,2.32,10.37C242.32,133.35,245.35,124.26,246.2,122.78Z"/><path class="cls-15" d="M236.65,103.5c-.13-1.59,1.16.54,2.72.88,5,1.11,3,9,4.21,14.05a14.06,14.06,0,0,1,.07,8.06c-1,2.73-2.16,5.47-2.23,8.36-.18,7.17.37,14.62-4.45,19.93s-13.17,7.37-20.23,6.1l-4.56-11.26c-1.33-3.28.52-6.94,1.42-10.35s1.53-7.17,0-10.36c-1.09-2.3,2.23-5,4.77-5.23a5.43,5.43,0,0,1,5.56,4.2c.43,2.13-.48,4.26-.91,6.38s-.17,4.76,1.73,5.8c4.65-5.17,7.48-12,9.76-18.42a106.65,106.65,0,0,0,2.06-13.32S236.73,104.51,236.65,103.5Z"/><g class="cls-16"><path class="cls-17" d="M220.74,127.14c.42,2.13-.57,4.82-.49,7,.19,5.15,3.21,6.56,4.53,6-2.46-1.68-1.95-4.65-1.71-5.85.44-2.13,1.34-4.26.92-6.38a5.45,5.45,0,0,0-5.57-4.21,6.27,6.27,0,0,0-3,1.2C218.09,123.79,220.32,125.06,220.74,127.14Z"/><path class="cls-17" d="M236.63,103c4.26.87,4.92,10.54,4.43,16.52a30.22,30.22,0,0,1-1.62,8c-1,2.73-2.16,5.47-2.23,8.36-.17,7.17.37,14.62-4.45,19.93a19.35,19.35,0,0,1-7.68,5c4.56-.77,6.78-4.39,10.87-6.18,5.72-2.51,5.33-12.69,5.51-19.86.07-2.9,1.26-5.63,2.22-8.36a23.43,23.43,0,0,0,1.38-8.13c0-5.2-.77-10.77-4.25-14a9.52,9.52,0,0,0-4.23-2.32"/></g><path class="cls-13" d="M301.67,219.74c-.22-.33-.49-.63-.75-1-2.8-3.56-7.05-11.35-9.71-16.19s-10.08-12.43-18.35-16.3c-6.56-3.06-16.92-10-22.68-14.08-1.54-1.07-2.75-2-3.48-2.48a17.65,17.65,0,0,1-1.07,2.54c-2.18,4.36-6.74,10.52-9.57,12.17a68.27,68.27,0,0,1,13,13.07c3.3,4.29,8.09,10.94,9.6,15.08a73.14,73.14,0,0,0,3.09,7.64l0,0c1.87,3.81,4.54,7.84,8.24,10.12-6.37.51-15.71,3.91-23.58,11.68-6.82,6.75-12.58,17.32-13.86,25.58a45.9,45.9,0,0,1-11.42,17.21C215.54,290.58,213.12,295,214,300l0,0h0s0,0,.09,0c3.64,2.85,9,5,14.25,6.24,5.1,1.23,10.14,1.65,13.49,1.17l.65-.1c6.88-1.22,16.77-6,22.07-23.54,10.69-6.54,14.15-14.7,14.72-19.77,6.76-5.34,9.22-10.26,11.55-15s2.81-6.93,5.8-11.52,4.34-6.28,5.59-9.41C303.19,225.66,305,224.4,301.67,219.74Z"/><path class="cls-13" d="M270,230.34a35.76,35.76,0,0,0-13.35,4.17A43.42,43.42,0,0,0,245.52,243a54.55,54.55,0,0,0-8.16,11.43,43.14,43.14,0,0,0-4.76,13.18,42.83,42.83,0,0,1,2.46-6.55,52.6,52.6,0,0,1,3.21-6.14,59.09,59.09,0,0,1,8.24-11,45.27,45.27,0,0,1,10.67-8.48,40.38,40.38,0,0,1,6.19-3A36.6,36.6,0,0,1,270,230.34Z"/><path class="cls-18" d="M301.68,219.74c-.22-.32-.49-.63-.75-1-2.8-3.55-7.05-11.35-9.71-16.19s-10.08-12.43-18.35-16.3c-6.56-3.06-16.92-10-22.68-14.08-1.54-1.07-2.75-2-3.48-2.48a17.65,17.65,0,0,1-1.07,2.54c6.58,5.46,20.7,14,26.37,17,6.55,3.46,12.2,8.47,14.36,12s6,11.23,8.61,14,5.32,7,5.74,9.6-4.05,8-5.34,10.23a73.75,73.75,0,0,0-4.08,7.59c-1.09,2.52-1.81,9.21-8,16.15-.36-3.36,1.15-9.14,2.77-14.45a21.6,21.6,0,0,1-1.92,2.72c-3.27,3.78-5,13.62-5.67,17.18s-4.14,12.36-10.15,15.54c.25-3.59.65-11.32-.77-17-3,3-12.05,7.1-22.83,7.13,10.12,1.84,16.16.64,20.4-.89-.25,6.18.5,31-21.86,36.85-12.18,3.15-27.57-5-29.14-5.85,3.64,2.85,9,5,14.25,6.24,5.1,1.23,10.14,1.65,13.49,1.17l.65-.1c6.88-1.22,16.77-6,22.07-23.53,10.69-6.55,14.15-14.71,14.72-19.78,6.76-5.34,9.22-10.26,11.55-15s2.81-6.93,5.8-11.52,4.33-6.28,5.59-9.41C303.2,225.66,305,224.4,301.68,219.74Z"/><path class="cls-18" d="M273.84,214.35c7.8,2,15.46,4.88,18.14,9.46l.58,1.05a16.2,16.2,0,0,1-2.93,8,12.33,12.33,0,0,0-.13-2.21C288.69,225.19,284.34,218.69,273.84,214.35Z"/><path class="cls-19" d="M270.35,277.3a33,33,0,0,0-.36-10.13c3.52-3.22,7.75-8.62,9.57-12.78C278.57,265.88,274.36,272.48,270.35,277.3Z"/><path class="cls-19" d="M260.89,288.88c-3.85,9-9.69,14.17-19.27,15.75s-22.73-4.43-23.84-7.31,7.4-7,15.17-16.56c7.39-9.08,24.37-7.66,27.53-7.44S263.4,283,260.89,288.88Z"/><path class="cls-19" d="M260.73,263c-4.89,2.41-10.54,2.78-12.27,2s-5.07-2.93-2-8.81,10.32-13.79,19.08-16.43,12-2.22,13.75.45-2.42,10.35-6.83,14.41A47.63,47.63,0,0,1,260.73,263Z"/><path class="cls-19" d="M286.69,228.43a13.22,13.22,0,0,1,.41,2.32,27.66,27.66,0,0,1-1.78,11.1,13.56,13.56,0,0,0-3.31-8.31,11,11,0,0,0-5.79-3.48c-4.77-1.49-8.57-3.93-11.3-8.12a43.07,43.07,0,0,1-5.27-12.15c-1.55-5.66-13-19.83-14.43-21s-.71-2.75,3.62-.19,17.06,11,23.77,14,13.42,7.5,16.25,10.24a23.46,23.46,0,0,1,5.18,8.43,28.75,28.75,0,0,0-10.45-6.19c-3.65-1.1-10.26-1.32-17.09-4.51a24,24,0,0,0,9.09,6.54C280.68,219.38,285.25,223,286.69,228.43Z"/><path class="cls-13" d="M67.9,231.41c.14-.36.34-.72.52-1.12,2-4,4.59-12.55,6.2-17.84s7.32-14.22,14.63-19.7c5.79-4.33,14.5-13.3,19.32-18.43,1.28-1.36,2.29-2.46,2.89-3.13a19,19,0,0,0,1.57,2.27c3,3.82,8.75,8.92,11.86,9.95a68.14,68.14,0,0,0-10.08,15.46c-2.36,4.87-5.68,12.36-6.31,16.73a75.24,75.24,0,0,1-1.47,8.1v0c-1,4.11-2.84,8.6-6,11.59,6.34-.81,16.18.61,25.47,6.61,8,5.22,15.86,14.38,18.8,22.21A45.93,45.93,0,0,0,160,278.65c6.7,4.49,10,8.3,10.16,13.35l0,0h0l-.08.07c-3,3.54-7.79,6.69-12.68,9s-9.58,3.69-13,3.9l-.66,0c-7,.22-17.64-2.41-26.41-18.52-11.8-4.22-16.86-11.51-18.46-16.35-7.71-3.84-11.12-8.15-14.36-12.31s-4.18-6.21-8-10.09-5.53-5.26-7.39-8.07C67.61,237.52,65.57,236.65,67.9,231.41Z"/><path class="cls-13" d="M101,235.32a35.82,35.82,0,0,1,13.92,1.35,43.54,43.54,0,0,1,12.67,6,54.83,54.83,0,0,1,10.32,9.52,43,43,0,0,1,7.36,11.93,42.83,42.83,0,0,0-3.75-5.91,52.67,52.67,0,0,0-4.4-5.36,59.13,59.13,0,0,0-10.31-9.07,45.37,45.37,0,0,0-12.18-6.12A40.9,40.9,0,0,0,108,236,36.46,36.46,0,0,0,101,235.32Z"/><path class="cls-18" d="M67.89,231.42c.14-.37.34-.72.52-1.12,2-4.06,4.59-12.56,6.2-17.84s7.32-14.23,14.63-19.71c5.79-4.33,14.5-13.3,19.32-18.42,1.28-1.36,2.29-2.47,2.89-3.14a17.49,17.49,0,0,0,1.57,2.27c-5.32,6.69-17.4,17.91-22.34,22-5.71,4.73-10.22,10.79-11.6,14.69s-3.58,12.22-5.56,15.5-3.78,7.92-3.65,10.57,5.59,7,7.31,8.93a72.53,72.53,0,0,1,5.55,6.59c1.58,2.24,3.65,8.65,11.14,14.17-.33-3.37-3-8.71-5.67-13.58a22.83,22.83,0,0,0,2.44,2.27c4,3,7.69,12.31,9.07,15.65s6.57,11.26,13.11,13.14c-1-3.46-3-10.94-2.73-16.8,3.55,2.3,13.25,4.48,23.81,2.31-9.53,3.87-15.69,3.92-20.15,3.3,1.5,6,5.85,30.48,28.93,31.6,12.56.6,26-10.55,27.33-11.68-3,3.53-7.79,6.69-12.68,9s-9.58,3.69-13,3.9l-.66,0c-7,.21-17.64-2.42-26.41-18.53-11.8-4.22-16.86-11.5-18.46-16.35-7.71-3.84-11.12-8.15-14.36-12.31s-4.18-6.21-8-10.09-5.53-5.26-7.39-8.06C67.6,237.52,65.56,236.66,67.89,231.42Z"/><path class="cls-18" d="M94,220.44c-7.22,3.57-14.13,7.94-15.82,13-.13.39-.24.76-.35,1.14a16.32,16.32,0,0,0,4.5,7.24,13.16,13.16,0,0,1-.33-2.2C81.71,234.09,84.64,226.84,94,220.44Z"/><path class="cls-19" d="M110.32,281.36a33,33,0,0,1-1.72-10c-4.11-2.43-9.35-6.85-12-10.55C99.94,271.85,105.41,277.46,110.32,281.36Z"/><path class="cls-19" d="M122,290.75c5.61,8,12.38,11.89,22.08,11.48s21.35-9,21.84-12-8.67-5.35-18.23-13.11c-9.09-7.38-25.42-2.52-28.48-1.65S118.28,285.49,122,290.75Z"/><path class="cls-19" d="M116.82,265.41c5.27,1.35,10.88.57,12.41-.55s4.37-3.91.16-9-12.92-11.39-22-12.18-12.18.27-13.37,3.25,4.48,9.64,9.63,12.71A47.55,47.55,0,0,0,116.82,265.41Z"/><path class="cls-19" d="M84.33,236.86a13.32,13.32,0,0,0,.08,2.35,27.64,27.64,0,0,0,4,10.5,13.48,13.48,0,0,1,1.55-8.8,10.93,10.93,0,0,1,5-4.6c4.37-2.43,7.59-5.6,9.4-10.26a43.34,43.34,0,0,0,2.68-13c.36-5.86,8.68-22.07,9.83-23.48s.13-2.84-3.58.54S98.79,204.4,92.83,208.69,81.23,218.78,79,222a23.55,23.55,0,0,0-3.35,9.31,28.92,28.92,0,0,1,9-8.2c3.34-1.82,9.77-3.38,15.8-7.9a24,24,0,0,1-7.56,8.26C88.37,226.77,84.63,231.27,84.33,236.86Z"/><path class="cls-13" d="M226.52,406c1.34-.27,1.84-7.35-.34-11.55-.8-1.55-2.16-2.94-2.62-4L222.37,387c-.15-3.09.08-4.34-.23-6.76h0a6.58,6.58,0,0,0-.67-2.47,7,7,0,0,1-.5-6.44c.91-2.23.31-8.17,0-11.88s-1.29-9.81,2.51-14.68,9.37-12.61,12.27-19.13,5.39-17.16,6-25.46c.12-1.74.36-4,.63-6.71.88-10,1.87-24.52-2.88-29.41-6-6.18-18.68-11.43-29.31-13.33-5.51,8.69-15.39,14.58-25.36,14.19-9.55-.36-19.22-6.68-25.32-14.4-6,.75-22.13,7.14-30.13,12.92-5.3,3.84-3.81,18.91-2,30.81.93,6,1.94,11.2,2.2,13.73.79,7.59,5.18,17,8.58,22.43s6.58,9.09,8.57,11.88a23,23,0,0,1,3.4,13.54c-.41,4.95-1.34,10.43-.6,13.52a7.45,7.45,0,0,1-.88,6.56,12.13,12.13,0,0,0-1.2,3.72,40.37,40.37,0,0,0-.49,4.44c0,.13-.25,2.63-.27,2.79s-.1.35-.13.67a58.35,58.35,0,0,1-2.7,13.87S168.47,417.77,226.52,406Z"/><path class="cls-19" d="M136.12,289.21c-.26,5.78,6.79,13.36,14.57,14.19s19-.5,25.75-4.13,7.78-18.48,4-22.27-18.16-4.62-27.74-1.32S136.32,284.75,136.12,289.21Z"/><path class="cls-19" d="M238,288.71c0,5.34-6.45,14.59-17.65,15.38-7.82.54-19.54-1.19-26.33-4.82s-7.78-18.48-4-22.27,22.83-7.12,32.41-3.82S238,283.38,238,288.71Z"/><g class="cls-20"><path class="cls-21" d="M241.43,291.13c-1.36,3-2.51,7.42-6.87,11.26s-13.46,6.06-19.3,5.31a141.93,141.93,0,0,1-21.56-5.19c-3.59-1.36-6.13-2.35-9-2.35s-6.59,1.24-10.32,2.23a155.26,155.26,0,0,1-21.37,4.2c-8.09.83-19.06-2.81-24-15.46a19.09,19.09,0,0,1-1.87,3.15c.94,6,1.94,11.2,2.21,13.73.79,7.59,5.17,17,8.57,22.43s6.59,9.09,8.58,11.88,3.8,8.59,3.4,13.54-1.34,10.43-.6,13.52a7.45,7.45,0,0,1-.89,6.56,11.88,11.88,0,0,0-1.19,3.72,32.71,32.71,0,0,0-.6,4.36c0,.14.17.15.14.31,13.11,5.09,22.6,7.49,37.26,7.72s27.27-2.6,38.36-4.91c-.15-3.09-.13-4.45-.44-6.87h0a6.77,6.77,0,0,0-.67-2.47,7,7,0,0,1-.51-6.44c.91-2.23.32-8.17,0-11.88s-1.29-9.81,2.52-14.68,9.36-12.61,12.26-19.13,5.39-17.16,6-25.46c.12-1.74.36-4,.62-6.71A15.33,15.33,0,0,0,241.43,291.13ZM217,342.78c-4.29,2.55-6.8,2.91-5.46-2.91s-.14-13-4.05-16.2-18.7-7.18-22.3-7.18-20.81,3.84-24.09,6.93-3.45,12.37-2.11,18.31a35.35,35.35,0,0,1-13.24-25.3c5.84.37,17.89-3.53,22.08-4.63s13.63-7.07,17.36-7.07,11.07,3.84,15.57,5.7,22.61,7.66,30.4,3.35C233,323.36,226.7,337,217,342.78Z"/></g><path class="cls-19" d="M165.87,342.94a32.83,32.83,0,0,1,13.19-.73,4.62,4.62,0,0,1,3.76,3.16c.83,3.28.34,6.82-.71,10.47a1,1,0,0,1-.81.65,56.46,56.46,0,0,1-17.55.17,1,1,0,0,1-.84-.66c-1-3.68-1.43-7.15-.56-10.17A4.57,4.57,0,0,1,165.87,342.94Z"/><path class="cls-19" d="M165.85,324.79a26.62,26.62,0,0,1,12.23-2.49,5.08,5.08,0,0,1,4.87,3.93,20.42,20.42,0,0,1-1,9.12,39.67,39.67,0,0,1-17.45,1.42,15.27,15.27,0,0,1-1-9.35A4.23,4.23,0,0,1,165.85,324.79Z"/><path class="cls-19" d="M204.1,342.94a32.88,32.88,0,0,0-13.2-.73,4.65,4.65,0,0,0-3.76,3.16c-.82,3.28-.33,6.82.72,10.47a1,1,0,0,0,.81.65,56.46,56.46,0,0,0,17.55.17,1,1,0,0,0,.84-.66c1-3.68,1.42-7.15.55-10.17A4.56,4.56,0,0,0,204.1,342.94Z"/><path class="cls-19" d="M204.11,324.79a26.6,26.6,0,0,0-12.22-2.49,5.1,5.1,0,0,0-4.88,3.93,20.43,20.43,0,0,0,1,9.12,39.63,39.63,0,0,0,17.44,1.42,15.2,15.2,0,0,0,1-9.35A4.2,4.2,0,0,0,204.11,324.79Z"/><path class="cls-19" d="M168.5,366.36c.7-4.51,8.86-5.74,17.7-5.85,10.2-.13,17.54,2.09,17.68,6.41"/><path class="cls-6" d="M131.78,148.49c.9,2.4,2.19,5.61,3.09,8,1.63-.76,3.21-1,4.83-1.77-.26,2,.24,4.6,0,6.63,2.33.54,4.09,1.8,6.42,2.34-1.6,1.22-3.85,2.82-5.45,4,2.85,2.25,3.67,6.8,2.18,10.11-1.33-.5-2.88-1.62-3.13-3,.59,4.2-1.63,9.08-4.41,12.3a5.5,5.5,0,0,0-1.72-5.25c-.62,5.79-3.15,10.55-6.82,15.08-1.12-.84-1.94-.42-3.06-1.26.14,5.73-3.52,11.56-8.45,14.47-.77-1.58-1.64-3.15-2.41-4.73a19.69,19.69,0,0,1-5.7,10.16c-1.4-2.73-2.91-5.86-4.31-8.59a14.13,14.13,0,0,1-6.68,7.06c.44-3.19-.56-7.23-3.38-8.78-2.12,1.23-3.69,3-5.81,4.23-.62-2.46-.67-4.44-1.29-6.89l-8.68.65c3.83-4,7.66-8.1,12.68-10.38-2.57-.23-5.17-1.8-7.74-2,3.67-2.9,6.79-6.71,10.46-9.62-1.48-.21-2.85-.74-4.33-.95a41.54,41.54,0,0,1,15.73-14.07,5.69,5.69,0,0,0-5.58-2.45c4-3.61,10.52-5.94,15.88-5.19a12.16,12.16,0,0,0-5.37-4.37c3.21-1.53,8.56.59,10.74-.29A1.62,1.62,0,0,1,121,154a64.49,64.49,0,0,0,7.8,4.57C129.64,156,129,148.43,131.78,148.49Z"/><path class="cls-22" d="M142.82,177.84c-1.33-.5-2.88-1.62-3.13-3,.59,4.2-1.63,9.08-4.41,12.3a5.5,5.5,0,0,0-1.72-5.25c-.62,5.79-3.15,10.55-6.82,15.08-1.12-.84-1.94-.42-3.06-1.26.14,5.73-3.52,11.56-8.45,14.47-.77-1.58-1.64-3.15-2.41-4.73a19.69,19.69,0,0,1-5.7,10.16c-1.4-2.73-2.91-5.86-4.31-8.59a14.13,14.13,0,0,1-6.68,7.06,10.53,10.53,0,0,0-1.26-6.71,18.65,18.65,0,0,0,1.29-3.91c.76,1.59,1.64,3.15,2.4,4.74,4.94-2.91,8.6-8.74,8.46-14.47,1.12.83,1.93.41,3,1.25,3.67-4.52,6.21-9.28,6.83-15.07a5.52,5.52,0,0,1,1.72,5.24c2.77-3.21,5-8.09,4.4-12.3.25,1.4,1.81,2.51,3.13,3,1.49-3.31.68-7.87-2.17-10.11,1.6-1.22,3.84-2.82,5.45-4-2.33-.53-5.16-1.52-7.48-2.06,1.11-1.11,1.88-1.6,1.32-3a14.31,14.31,0,0,0-3.49-2.93c-2.51-1.53-5.48-6-5.23-8.09,3.69,2.05,7,3.66,8.65,7.54.85-2.65,5.8-4.74,8.58-4.68.9,2.4,2.19,5.61,3.09,8,1.63-.76,3.21-1,4.83-1.77-.26,2,.24,4.6,0,6.63,2.33.54,4.09,1.8,6.42,2.34-1.6,1.22-3.85,2.82-5.45,4C143.49,170,144.31,174.53,142.82,177.84Z"/><path class="cls-10" d="M117.77,161.53q-4.78,2.19-9.63,4.21l0-1.3c1.55.42,3.1.87,4.64,1.32l4.63,1.35,2.6.76-2.47,1.3-7.75,4.09-7.8,4-.61-2.92,10.46.34,6.48.21-5.85,2.84c-2.1,1-4.22,2-6.34,3s-4.21,2-6.34,3l-.6-2.88,5.55.31,5.12.27-4.5,2.37c-2,1-3.92,2-5.89,3s-3.93,2-5.91,3l-.44-1.88c2.11.19,4.22.36,6.33.59l2.1.23-1.73,1.07a13,13,0,0,0-5.75,8.53,12.78,12.78,0,0,1,4.93-9.7l.38,1.3c-2.12,0-4.24,0-6.35,0H89.48l3.1-1.88c1.88-1.15,3.79-2.25,5.69-3.36s3.81-2.23,5.73-3.31l.62,2.64-5.56-.1-6-.1L98.46,181c2.08-1.06,4.2-2,6.3-3.08s4.19-2.06,6.3-3.06l.64,3-10.46-.47L95,177.14l5.63-2.63,7.94-3.72,8-3.62.13,2.06-4.5-1.73q-2.25-.85-4.49-1.75l-1.85-.75,1.84-.56C111,163.43,114.38,162.44,117.77,161.53Z"/><path class="cls-6" d="M222.5,149.78c-.39,2.54-1,5.94-1.39,8.48-1.75-.41-3.34-.34-5.09-.75.68,1.93.71,4.55,1.39,6.49-2.17,1-3.64,2.6-5.81,3.6,1.82.86,4.34,2,6.16,2.84-2.33,2.77-2.2,7.4-.06,10.34,1.19-.77,2.48-2.18,2.45-3.59.27,4.23,3.45,8.56,6.82,11.13a5.5,5.5,0,0,1,.61-5.48c1.79,5.54,5.25,9.68,9.77,13.36.92-1,1.81-.81,2.73-1.85,1,5.63,5.81,10.59,11.24,12.43.42-1.71,1-3.42,1.38-5.13a19.72,19.72,0,0,0,7.67,8.79c.8-3,1.64-6.33,2.45-9.29a14.2,14.2,0,0,0,8,5.54c-1.09-3-.94-7.19,1.51-9.29,2.33.77,4.23,2.18,6.55,3,.11-2.53-.25-4.48-.14-7l8.63-1.14c-4.56-3.1-9.16-6.36-14.54-7.57,2.46-.75,4.7-2.81,7.16-3.56-4.18-2.1-8-5.19-12.2-7.28,1.4-.51,2.64-1.31,4-1.82a41.63,41.63,0,0,0-18.27-10.56,5.69,5.69,0,0,1,4.95-3.54c-4.68-2.71-11.51-3.66-16.59-1.83a12.18,12.18,0,0,1,4.36-5.38c-3-6.64-11.33,8.62-11.86,2.91.25-1.08.54-8.67-.16-10.74-3.19,2.76-6.26,6.12-7.1,10.26C225.77,150.68,225.21,149.15,222.5,149.78Z"/><path class="cls-22" d="M217.7,180.78c1.19-.77,2.48-2.18,2.45-3.59.27,4.23,3.45,8.56,6.82,11.13a5.5,5.5,0,0,1,.61-5.48c1.79,5.54,5.25,9.68,9.77,13.36.92-1,1.81-.81,2.73-1.85,1,5.63,5.81,10.59,11.24,12.43.42-1.71,1-3.42,1.38-5.13a19.72,19.72,0,0,0,7.67,8.79c.8-3,1.64-6.33,2.45-9.29a14.2,14.2,0,0,0,8,5.54,10.49,10.49,0,0,1-.14-6.82,19,19,0,0,1-2.06-3.57c-.42,1.71-1,3.42-1.39,5.13C261.8,199.59,257,194.63,256,189c-.93,1-1.81.8-2.73,1.84-4.52-3.67-8-7.81-9.77-13.35a5.5,5.5,0,0,0-.61,5.48c-3.38-2.57-6.55-6.9-6.83-11.14,0,1.42-1.25,2.83-2.45,3.6-2.13-2.94-2.27-7.57.07-10.35-1.82-.86-4.34-2-6.16-2.83,2.17-1,3.64-2.6,5.8-3.6-2.43-1.28-2.34-7-1.83-8.76.07-.25,1.15,3.66,3.53,5-.49-1.82-.09-10.07-.76-12-3.19,2.76-6.26,6.12-7.1,10.26-1.38-2.42-1.94-3.95-4.65-3.32-.39,2.54-1,5.94-1.39,8.48-1.75-.41-3.34-.34-5.09-.75.68,1.93.71,4.55,1.39,6.49-2.17,1-3.64,2.6-5.81,3.6,1.82.86,4.34,2,6.16,2.84C215.43,173.21,215.56,177.84,217.7,180.78Z"/><path class="cls-10" d="M238.88,159.69c3.5.2,7,.47,10.49.78l1.91.18-1.66,1.1c-1.34.9-2.69,1.77-4,2.64L241.53,167l-.29-2.05,8.55,1.92,8.53,2,6.05,1.43-6.06,1.55-10.14,2.6v-3.11c2.27.54,4.53,1.13,6.8,1.7s4.53,1.12,6.79,1.73l5.89,1.59-5.89,1.34-5.43,1.23.07-2.71c2.1.66,4.19,1.37,6.28,2.07s4.19,1.39,6.27,2.12l3.42,1.21-3.46.73c-2.07.43-4.13.9-6.21,1.31l.1-1.35a12.77,12.77,0,0,1,6.81,8.49,12.94,12.94,0,0,0-7.37-7.17l-1.91-.7,2-.65c2-.66,4.05-1.25,6.07-1.88l0,1.94c-2.14-.54-4.27-1.12-6.4-1.69s-4.26-1.13-6.38-1.74l-4.88-1.39,4.95-1.32,5.38-1.43v2.93c-2.28-.5-4.55-1.07-6.82-1.61s-4.55-1.07-6.82-1.64l-6.3-1.58,6.3-1.53,10.17-2.47v3l-8.45-2.33-8.42-2.41-2.69-.77,2.4-1.28,4.25-2.27c1.42-.75,2.84-1.51,4.27-2.24l.25,1.28C245.73,161.17,242.3,160.47,238.88,159.69Z"/><path class="cls-6" d="M244.21,312.78a73.06,73.06,0,0,1-5.43,26.2c-.79-1.26-1.42-2.49-2.21-3.75a40.94,40.94,0,0,1-12.44,23.67c-.22-1-.7-1.89-.91-2.93-5.15,10.29-13.7,19.27-23.44,25.83-.83-1.69-1.34-2.2-2.17-3.89-1.52,2.2-3.11,4.71-4.63,6.91-2.13-1.95-4.86-3.92-7-5.88-1,1.93-2.51,3.86-3.53,5.79-2.79-2.18-5.29-4.26-8.08-6.44-.44,1.38-1.21,2.71-1.65,4.1-4.28-1.91-7.75-6.05-8-10.58-1.31,1.36-3.18,2.45-4.48,3.81-1.36-3.24-3.41-6.94-4.77-10.18-.82.95-2.17,1.73-3,2.68l-5.46-11.57c-1.16,1.72-2.24,2.39-3.41,4.11a54.13,54.13,0,0,1-9.36-18.53c-1.25,1.13-2.45,1.51-3.7,2.65-3.8-8.79-5.6-18.1-4.18-27.55,0-.27-.12.16,0-.1l-4.28,3.5a41.31,41.31,0,0,1,4.72-23.83c-1.08.65-2.09,1.31-3.17,2-1.07-4.41,2.17-9,6.37-11.09s9.11-2.31,13.84-2.34c26.85-.19,53.53,3.55,80.06,7.44,4.93.72,10.09,1.55,14,4.49a14,14,0,0,1,4.87,15.4C243.2,313.14,243.82,312.3,244.21,312.78Z"/><path class="cls-22" d="M123.15,307.93l4.28-3.5c-.08.27.08-.16,0,.11-1.41,9.44.39,18.75,4.18,27.54,1.25-1.13,2.45-1.51,3.7-2.65A53.8,53.8,0,0,0,144.72,348c1.16-1.71,2.24-2.38,3.41-4.1q2.73,5.77,5.45,11.56c.82-.94,2.18-1.72,3-2.67,1.35,3.24,3.4,6.94,4.76,10.18,1.31-1.36,3.17-2.45,4.48-3.81.21,4.53,3.69,8.66,8,10.57.44-1.38,1.2-2.71,1.64-4.1,2.8,2.18,5.29,4.27,8.08,6.45,1-1.94,2.5-3.86,3.53-5.79,2.13,1.95,4.86,3.92,7,5.88,1.52-2.2,3.12-4.71,4.63-6.91.84,1.69,1.34,2.19,2.17,3.88,9.75-6.55,18.29-15.53,23.44-25.82.22,1,.69,1.88.91,2.92a40.86,40.86,0,0,0,12.44-23.66c.79,1.25,1.42,2.49,2.22,3.75a73.65,73.65,0,0,0,4.08-13.71.45.45,0,0,1,.53.11,73,73,0,0,1-5.43,26.2c-.79-1.25-1.42-2.49-2.21-3.75a40.94,40.94,0,0,1-12.44,23.67c-.22-1-.7-1.89-.91-2.93-5.15,10.3-12.93,20.68-22.68,27.24-.83-1.69-2.1-3.6-2.93-5.3-1.52,2.21-3.08,7.28-4.6,9.48-2.13-1.95-4.89-6.49-7-8.45-1,1.94-2.83,6-3.85,7.9-2.8-2.18-5-6.37-7.75-8.55-.44,1.38-1.21,2.72-1.65,4.1-4.28-1.91-7.75-6.05-8-10.58-1.31,1.36-3.94,3.34-5.25,4.7-1.36-3.24-2.64-7.82-4-11.06-.82.94-2.17,1.72-3,2.67l-5.46-11.56c-1.16,1.71-2.24,2.38-3.41,4.1A54,54,0,0,1,134.54,342c-1.25,1.13-2.45,1.51-3.7,2.65-3.8-8.79-8.68-18.23-4.18-27.54.12-.25-.12.15,0-.11l-4.28,3.5a44.33,44.33,0,0,1,.77-13.21C123.12,307.53,123.13,307.73,123.15,307.93Z"/><path class="cls-22" d="M126.66,317.15c0-.28-.12.15,0-.11l-4.28,3.5a41.33,41.33,0,0,1,4.72-23.83c-1.08.65-2.09,1.32-3.17,2-1.07-4.42,2.17-9,6.37-11.1s9.11-2.31,13.84-2.34c26.85-.19,53.53,3.56,80.06,7.44,4.93.73,10.09,1.55,14,4.49a14,14,0,0,1,4.87,15.4c.4.48,1-.36,1.41.12a73,73,0,0,1-4.24,23.09c-1.24-.86-2.14-5.35-3.43-6.24-1.95,4.86-4.72,11-10.32,12.28-.14-2-1.44-5.63-3.35-6.7-.92,4.78-6.72,11.52-12.05,12.44a10,10,0,0,0-5.12-6.53c-2.5,2.3-3.25,5.59-3.29,8.8-6.23.76-13.13-1.5-15.92-6.54a15.78,15.78,0,0,1-10,9.69c0-4.07-3.27-7.47-7.54-8.89-1.49,1.37-3.12,3.13-4.61,4.5-2.52-2.15-4.63-5-4.42-8.14-2.17,1.51-4.74,2.66-6.91,4.18-3.94-2.75-10.21-8.77-9.12-13.14-3.64.39-2.79,5.3-5.87,5.11-1.7-2.39-3.11-5-3-7.82-2.56.47-4.7,1.52-5.78,3.65-3.22-2.76-4.14-8.65-1.27-11.71a16.16,16.16,0,0,0-2,.13C126.35,319.62,126.47,318.38,126.66,317.15Z"/><path class="cls-6" d="M216,259.67a77.9,77.9,0,0,1,31.5,6.33,4.22,4.22,0,0,1-4.4,2.78c6.82,1.72,13.67,6.28,16.36,12.75-1.31-.11-2,.44-3.28.33a24.05,24.05,0,0,1,10.74,16.2c-2.74-.9-4.38-.94-7.12-1.84,2.95,7.67,4.62,16.95,1.5,24.54-2.76-1.1-3.69-1-6.44-2.14A36.2,36.2,0,0,1,246,333.41c-2.62-2-5.08-3.88-7.7-5.92-2,5.64-6,10-11.83,11.45a8.28,8.28,0,0,0-3.61-6.14,14.17,14.17,0,0,1-11,11.34,11.57,11.57,0,0,0-5.35-7.58c-2.6,2.66-3.38,6.48-3.41,10.2-6.5.87-13.71-1.76-16.63-7.61-1.5,5-5.49,9.59-10.41,11.23,0-4.72-3.43-8.67-7.89-10.32-1.55,1.59-3.25,3.62-4.8,5.21-2.63-2.49-4.84-5.84-4.63-9.45-2.25,1.76-4.94,3.09-7.19,4.84-4.13-3.2-6.77-9.48-5.64-14.55-3.8.45-8,2-10,5.22-1.78-2.77-3.26-5.8-3.11-9.08-2.67.54-4.91,1.76-6,4.23-3.36-3.21-4.33-10-1.34-13.58a18.58,18.58,0,0,0-10.22,3.39c-1.28-5-.2-10.69,3.65-14.07a9.23,9.23,0,0,0-10.07,2.33c-1.06-3.55-.62-8.15,2.54-10.08-3.11.09-6.27-1.53-8.88-3.21,2.61-1.84,4.82-4.19,7.42-6a13.62,13.62,0,0,1-9-9.6c2.22.87,4.75-.33,6.77-1.58-2-.72-3-2.55-4.92-3.27a34.93,34.93,0,0,1,17.89-4.47c-2.61-2.2-5.09-3.45-8.49-3.1,9.21-4.33,18.78-6,28.71-3.69,21.16-2.21,42.06-1.53,63.26.36C207.38,260.18,212.57,259.71,216,259.67Z"/><path class="cls-22" d="M261.34,287.85c.54.17,1,.31,1.51.44a25.14,25.14,0,0,1,4,9.77,27,27,0,0,0-2.89-.77A49.69,49.69,0,0,0,261.34,287.85Z"/><path class="cls-22" d="M106.91,274.43a12.55,12.55,0,0,0,4.45,2.42c-2.34,1.65-4.37,3.69-6.64,5.42a13.89,13.89,0,0,1-3.94-6.64C102.77,276.41,105,275.53,106.91,274.43Z"/><path class="cls-22" d="M102.63,270.78c.31-.17.62-.31.93-.47a14.13,14.13,0,0,0,1.12,1.76A6.86,6.86,0,0,0,102.63,270.78Z"/><path class="cls-22" d="M116.69,307.92a18.57,18.57,0,0,1,10.22-3.4c-3,3.54-2,10.37,1.34,13.58,1.13-2.47,3.36-3.68,6-4.23-.15,3.28,1.33,6.31,3.11,9.08,2.06-3.2,6.22-4.77,10-5.22-1.13,5.07,1.51,11.36,5.63,14.55,2.26-1.75,4.94-3.08,7.2-4.83-.22,3.6,2,6.95,4.63,9.44,1.55-1.59,3.25-3.62,4.8-5.21,4.45,1.65,7.89,5.6,7.88,10.33,4.93-1.65,8.91-6.29,10.42-11.24,2.92,5.86,10.12,8.48,16.62,7.62,0-3.73.81-7.54,3.41-10.21a11.55,11.55,0,0,1,5.36,7.58,14.17,14.17,0,0,0,11-11.34,8.28,8.28,0,0,1,3.62,6.14c5.84-1.48,9.79-5.81,11.82-11.45,2.62,2,5.08,3.88,7.71,5.92a36.18,36.18,0,0,0,8.86-14.79c2.76,1.1,3.69,1.05,6.44,2.14l.08-.21a23.74,23.74,0,0,1-1.66,8.59c-2.76-1.1-3.69-1-6.44-2.14A36.2,36.2,0,0,1,246,333.41c-2.62-2-5.08-3.88-7.7-5.92-2,5.64-6,10-11.83,11.45a8.28,8.28,0,0,0-3.61-6.14,14.17,14.17,0,0,1-11,11.34,11.57,11.57,0,0,0-5.35-7.58c-2.6,2.66-3.38,6.48-3.41,10.2-6.5.87-13.71-1.76-16.63-7.61-1.5,5-5.49,9.59-10.41,11.23,0-4.72-3.43-8.67-7.89-10.32-1.55,1.59-3.25,3.62-4.8,5.21-2.63-2.49-4.84-5.84-4.63-9.45-2.25,1.76-4.94,3.09-7.19,4.84-4.13-3.2-6.77-9.48-5.64-14.55-3.8.45-8,2-10,5.22-1.78-2.77-3.26-5.8-3.11-9.08-2.67.54-4.91,1.76-6,4.23-3.36-3.21-4.33-10-1.34-13.58a18.58,18.58,0,0,0-10.22,3.39,15.17,15.17,0,0,1,1.15-10.89A16.59,16.59,0,0,0,116.69,307.92Z"/><path class="cls-22" d="M112.81,286.09c-2.65,1.63-3.38,5.13-2.92,8.31a18.69,18.69,0,0,1-7.54-3.14c2.46-1.74,4.58-3.91,7-5.7A10.64,10.64,0,0,0,112.81,286.09Z"/><path class="cls-22" d="M110.27,296.17a9.24,9.24,0,0,1,10.08-2.33,12.58,12.58,0,0,0-4,7.77,9.51,9.51,0,0,0-7.66,2.94c-.91-3.06-.7-6.89,1.39-9.13C110.14,295.67,110.2,295.92,110.27,296.17Z"/><path class="cls-22" d="M199.43,346.77a18.3,18.3,0,0,0,3.36-6.2,13.69,13.69,0,0,0,.79,1.33,20.83,20.83,0,0,0-.56,4.74A18.7,18.7,0,0,1,199.43,346.77Z"/><path class="cls-22" d="M175.06,337.24c-.21,3.6,2,6.95,4.63,9.44,1.55-1.59,3.25-3.62,4.8-5.21.27.1.53.21.79.33a16.92,16.92,0,0,1-9.3,8.46,11.06,11.06,0,0,0-6.17-9.55C171.57,339.56,173.43,338.51,175.06,337.24Z"/><path class="cls-22" d="M102.36,291.14c2.6-1.84,4.82-4.19,7.42-6a13.6,13.6,0,0,1-9-9.6c2.21.87,4.75-.33,6.77-1.58-2-.72-3-2.55-4.93-3.27a35,35,0,0,1,17.9-4.47c-2.61-2.2-5.1-3.45-8.49-3.1,9.2-4.33,18.77-6,28.71-3.69,21.15-2.21,42.06-1.53,63.26.36,3.38.3,8.56-.17,12-.21a78.52,78.52,0,0,1,16.18,1.54c-3.4.06-8.44.5-11.75.21-21.2-1.89-42.1-2.58-63.26-.36-9.93-2.32-11.61-1.31-20.82,3,3.4-.35-2,1.57.6,3.76A35,35,0,0,0,119,272.19c2,.73,3,2.55,4.92,3.28-2,1.25-4.55,2.45-6.77,1.57a13.62,13.62,0,0,0,9,9.61c-2.6,1.83-4.81,4.19-7.41,6,2.6,1.69,5.76,3.31,8.87,3.21-3.16,1.94-4,4.84-2.91,8.38,2.42-2.66,7.14-2.09,10.44-.62-3.85,3.38-6.9,6.37-5.62,11.33a15,15,0,0,1,9.23-2.81c-1.19,6.95.79,11.16,3.36,14.65-2.56.83-9.13,5.19-10.53,7.35-1.78-2.77-1.13-8.85,1.11-12-2.68.54-8.43,1.48-9.56,3.95-2.8-3.82-2.8-10.85,0-14.81-3.6,0-5.05,2.91-8,4.9-1.28-5-.19-10.69,3.66-14.07a9.22,9.22,0,0,0-10.07,2.33c-1.06-3.55-.62-8.15,2.54-10.08C108.13,294.44,105,292.82,102.36,291.14Z"/><path class="cls-22" d="M196.9,346.44a16.42,16.42,0,0,1-7-3.13,10.48,10.48,0,0,1,2-3A11.88,11.88,0,0,1,196.9,346.44Z"/><path class="cls-22" d="M237.83,328.46a19.09,19.09,0,0,1-4.44,6.55A37.55,37.55,0,0,0,237.83,328.46Z"/><path class="cls-22" d="M106,270.07c-.76,0-1.51,0-2.25,0l1.41-.68C105.47,269.61,105.75,269.83,106,270.07Z"/><path class="cls-22" d="M240.32,322.38c2.76,1.1,3.69,1,6.44,2.14,3.12-7.59,1.46-16.87-1.5-24.54,2.74.9,4.38.94,7.13,1.84-1.16-6.48-5.07-12.8-10.74-16.2,1.3.11,3.6-1.12,4.9-1-2.69-6.47-11.17-10.35-18-12.07,2,.15-2.46-1.44-1.83-3.28-9.91-4.27-14.49-5.94-25.28-5.83-3.39,0-8.58.51-12,.21-21.21-1.89-42.11-2.57-63.27-.36a39.45,39.45,0,0,0-12.7-.87c8.74-3.82,17.81-5.2,27.21-3,21.15-2.21,42.06-1.53,63.26.36,3.38.3,8.56-.17,12-.21A80.77,80.77,0,0,1,248.05,266c-.81,1.43-2.23,2.91-4.19,2.76,6.82,1.72,13.37,6.57,16.06,13a3.62,3.62,0,0,0-3,.35c5.67,3.4,8.81,9.3,10,15.78-2.75-.9-4.39-.94-7.13-1.84,3,7.67,4.62,16.95,1.5,24.54-2.75-1.1-3.68-1-6.43-2.14A36.31,36.31,0,0,1,246,333.29c-2.6-2-5-3.85-7.63-5.86A33.32,33.32,0,0,0,240.32,322.38Z"/><path class="cls-22" d="M178.55,349.09a13.2,13.2,0,0,1-2.57,1.17,9.44,9.44,0,0,0-.48-3A15.18,15.18,0,0,0,178.55,349.09Z"/><path class="cls-22" d="M200.55,346.8a13.89,13.89,0,0,0,2.53-1.58c0,.47-.05.95-.06,1.42A16.89,16.89,0,0,1,200.55,346.8Z"/><path class="cls-22" d="M223.75,331.25c2.48,1.93,4.82,3.68,7.28,5.59a15.73,15.73,0,0,1-4.6,2,8.32,8.32,0,0,0-3.34-5.94C223.32,332.35,223.55,331.81,223.75,331.25Z"/><path class="cls-22" d="M208.31,336.56a8.29,8.29,0,0,1,3.62,6.14,16.36,16.36,0,0,0,10.53-8.54A14.17,14.17,0,0,1,211.79,344a11.05,11.05,0,0,0-3.72-6.34A10.62,10.62,0,0,0,208.31,336.56Z"/><path class="cls-23" d="M237.17,264.14c-3,2-5.45,1.39-9.42.66,1.6,5.43,1.45,10.41-.69,14.32-1.39-2.93-5.44-4.12-7.46-5.34.37,8.66-7.89,26.59-19,26.53a19.67,19.67,0,0,0,1.65-8c-3.12,5.72-7.47,7.12-13.73,9-.36-2.77,1.1-1.4-.89-6.51-4.15,4.17-4.17,5.31-5.05,11.13-4.06-2.05-6.36-6.61-8-9.07-.63,1.34-4.62,6.43-6.11,6.52s-2-.43-3.28-1.12c-8.47-4.4-19.87-20.88-21-34.65a33,33,0,0,0-9.19,3.59c-.41-3.79-2.53-14.37,1.57-20.64.43.08,5.88-1.62,6.3-1.52,22.56-2.36,39.67,5.13,62.27,7.14,3.6.33,8-1.08,11.66-1.39C216.71,254.78,229.19,253.67,237.17,264.14Z"/><path class="cls-6" d="M138.51,218.71a12.12,12.12,0,0,1,1.09,4.41,3.5,3.5,0,0,1-.11,1.27.72.72,0,0,1-.82.59c-2.27-.43-2.64-.64-6.83-3.5-.24,6.13,2.55,8.38,4.27,10.29,0,3.07-4.47,3.88-8.16,3.81,0,0,5.61,5.46,12.43,6.7-2.5,3.76-5,8.24-3.95,12.48,1.74-3,8.59-5.83,11-6.25,2.24,10.34,8,20.19,19.72,25.91,1.25.61,3.43,2.63,4.88,2.51s3.25,1.31,3.77.28c1.81,1.79,3.79,1.67,5.61,3.46.4-4.41.92-1.27,6-3.32.58,2.08,2.35-2.08,2.93,0,6-1.65,11.61-6.1,14.19-10.52.18,1.83,1,3.3,1.15,5.13,7.91-2.28,12.16-10,11.09-16.47,3.16.48,6.68,1.83,8.29,4a19.18,19.18,0,0,0-1.56-9.11,16.5,16.5,0,0,0,2-2.32c3.58,1.21,10.43,1.24,14.9-1.26-5.72-1.18-10.9-6.18-11.51-8.46a3.14,3.14,0,0,1,2.62-4.72c3.61.3,1,4,6.86,6-1.56-2.18,1.69-15.08-8.33-15.94-2.68.3-3.38-1.79-1.59-4.15,3.33-3.72,3.39-8.91,2.74-13.5-.62,1.73-2.73,4-4,4.46-3.62,1.37-6,.38-7.51-1.91-1.53-1.69-2.13-5.77-1.41-8.13a20.85,20.85,0,0,0,.25-11.11c-.94,2.55-2.31,4.66-5.27,3.74-.87-.29-1.95-.74-2.87-3.05a41.24,41.24,0,0,0-19.37-21.48,4.08,4.08,0,0,0-2.14-.45c-1.52.13-1.56,1.08-1.93,2.32-1.59-1.74-3.54-3.05-5.12-4.79,0,4.69-1.41,9.54-5.32,12.13-1.69-1.55-2.25-4.36-2-6.41a19.69,19.69,0,0,0-10.25,10.86c-1.06-1.53-1.17-3.38-1.29-5.31-5.27,2.62-8.12,9.15-8,15.22.22,2.34-.59,2.9-1.63,2.78a8.5,8.5,0,0,1-5-3.16,26,26,0,0,0,1.6,9.47c-2.87-.29-4.63-2.53-5.75-4.35a16.45,16.45,0,0,0,.28,7.1c-2.86-.13-3.75-.58-8.28.74a17,17,0,0,0-9.23,7c4.79,0,7.85,1.27,9.93,4.29A23.17,23.17,0,0,1,138.51,218.71Z"/><path class="cls-22" d="M225,272.48c-1.61-2.16-5.13-3.51-8.29-4,1.07,6.51-3.18,18.85-11.09,21.13-.17-1.83-1-3.31-1.15-5.13-2.58,4.42-7.6,7.53-13.57,9.19-.59-2.08-1.35-4.15-1.94-6.23-5,2.05-7.18,6.46-7.58,10.88-1.82-1.8-3.42-5.05-7-8.11-.51,1-2.79,3.32-4.23,3.44a8.65,8.65,0,0,1-4.28-1c-11.69-5.73-16.78-18.57-19-28.91-2.82,1.43-6,2.51-8.86,3.94-1-4.24-.9-9.74,1.7-13.84,0,0,2.56-4.69,7.8-5.34,2.25,10.34,10.69,22.36,22.38,28.08a5.16,5.16,0,0,0,3.31.74c1.45-.12,7,1.46,7.49.43,1.82,1.79-1.26.82.56,2.61.39-4.41,2.66-9,7.71-11.07.58,2.08,1.22,4.34,1.8,6.42,6-1.65,11-4.77,13.58-9.19.18,1.83,1,3.31,1.15,5.13,7.91-2.28,12.16-10,11.09-16.47,3.16.49,6.35,1.42,7.95,3.58.32-2.95-.87-8.48-2.19-11.92,0,0,5.3,2.51,9.77,2a5.1,5.1,0,0,1-3.11,1.61,19.7,19.7,0,0,0,1.58,2.17,17.49,17.49,0,0,0,10.25,6.18c-4.47,2.5-12.18,4.24-17.4,3.21C223.43,262,226.47,267.6,225,272.48Z"/><path class="cls-13" d="M151.7,234.3a9.23,9.23,0,0,1-8.26-3.91,6.82,6.82,0,0,1-1.16-5.53,5.39,5.39,0,0,1,9.09-2.33A75.87,75.87,0,0,1,151.7,234.3Z"/><path class="cls-13" d="M215,235.16a9.27,9.27,0,0,0,8.16-4.12,6.82,6.82,0,0,0,1-5.56,5.38,5.38,0,0,0-9.15-2.09A75.82,75.82,0,0,0,215,235.16Z"/><path class="cls-6" d="M160.19,188.21a10.25,10.25,0,0,0,3.57,6.43,5.74,5.74,0,0,1,4.84-4.9,3.5,3.5,0,0,1,.6,4.4,8.81,8.81,0,0,0,6.42-3.23,4.83,4.83,0,0,1,.08,4.12c4-.82,6.69-3.74,8.85-6.9a16,16,0,0,0,9.29,11.69c.45-4.22,2.24-8.41,6-10.87a7.91,7.91,0,0,1,.95,5.87,13.28,13.28,0,0,0,6.85-6.73l.46,0a12.75,12.75,0,0,1-7.87,11.54,7.86,7.86,0,0,0-.94-5.87c-3.79,2.46-5.58,6.65-6,10.87A16,16,0,0,1,184,193c-2.16,3.16-4.87,6.08-8.84,6.91a4.92,4.92,0,0,0-.08-4.13,8.81,8.81,0,0,1-6.42,3.23,3.5,3.5,0,0,0-.61-4.4,5.75,5.75,0,0,0-4.84,4.9A10.07,10.07,0,0,1,160.19,188.21Z"/><path class="cls-22" d="M201.5,266.83c3.95-1.62,9.47-9,10.79-13.28a40.35,40.35,0,0,0,1.39-11.82,135.18,135.18,0,0,0-2.58-26.86c-17.07,1-38.5,2.32-55.52.53-2.06,14.48-3.41,29.3-.12,39.65,0,0,3.15,10.48,18.07,13.93A45,45,0,0,0,201.5,266.83Z"/><path class="cls-24" d="M158.75,197.1s21.52-6.12,49.89-.73l2.75,19.49s-25.12,14.14-55.81-.37Z"/><path class="cls-25" d="M167.38,210.48a.08.08,0,0,1-.11.05,2.14,2.14,0,0,0-.47-.18,1.13,1.13,0,0,0-1.35.69s0,0,0,.05c-.21,1.08-.3,1.62-.56,2.69a.11.11,0,0,1-.15.07l-1.31-.45a.14.14,0,0,1-.09-.16c.49-2,.55-3,1.14-4.89a.12.12,0,0,1,.15-.07c.46.17.69.25,1.16.4a.14.14,0,0,1,.09.15c0,.12,0,.18-.06.3.42-.36.87-.25,1.41-.09a1.71,1.71,0,0,1,.39.17.09.09,0,0,1,.05.11C167.53,209.78,167.48,210,167.38,210.48Z"/><path class="cls-25" d="M170.43,215.56a3.27,3.27,0,0,1-2-1.23,2.61,2.61,0,0,1-.46-2.09l0-.14a2.67,2.67,0,0,1,.61-1.3,2.22,2.22,0,0,1,1.16-.69,3.31,3.31,0,0,1,1.5,0,2.83,2.83,0,0,1,1.76,1.08,2.65,2.65,0,0,1,.37,2c0,.14,0,.21-.06.35a.23.23,0,0,1-.28.18c-1.41-.27-2.12-.43-3.53-.78a1.36,1.36,0,0,0,.31.93,1.61,1.61,0,0,0,.93.54,1.85,1.85,0,0,0,1.33-.14.28.28,0,0,1,.36.08l.38.54a.19.19,0,0,1-.06.29,2.42,2.42,0,0,1-.93.37A3.61,3.61,0,0,1,170.43,215.56Zm.62-4.31a1,1,0,0,0-.82.09,1.32,1.32,0,0,0-.52.71c.88.22,1.33.33,2.21.52,0,0,0-.07,0-.12a1,1,0,0,0-.15-.78A1.23,1.23,0,0,0,171.05,211.25Z"/><path class="cls-25" d="M181.53,213.16a1,1,0,0,1,.38-.8,1.3,1.3,0,0,1,.88-.29c.38,0,.85,0,1.07.17s.17.6.18.93v.21a1,1,0,0,1-.34.81,1.4,1.4,0,0,1-.93.3,1.37,1.37,0,0,1-.92-.32,1,1,0,0,1-.32-.84Z"/><path class="cls-25" d="M188,216.86a2.15,2.15,0,0,1-1.77-.63,3,3,0,0,1-.72-2,3.1,3.1,0,0,1,.52-2,2,2,0,0,1,1.55-.82,2.41,2.41,0,0,1,1.37.22c-.1-.92-.15-1.38-.24-2.3a.15.15,0,0,1,.12-.16L190,209a.15.15,0,0,1,.16.12c.38,2.89.57,4.34,1,7.22a.15.15,0,0,1-.14.16l-1.31.17m-2.58-2.46a1.88,1.88,0,0,0,.37,1.11,1,1,0,0,0,.88.33h0a1,1,0,0,0,.92-1c-.05-.52-.08-.77-.13-1.28a1,1,0,0,0-1.06-.85h0C187.35,212.58,187,213.15,187.09,214.25Z"/><path class="cls-25" d="M195.63,215.77a3.05,3.05,0,0,1-2.28-.29,2.32,2.32,0,0,1-1.14-1.73.68.68,0,0,0,0-.14,3,3,0,0,1,.1-1.45,2.44,2.44,0,0,1,.75-1.11,2.77,2.77,0,0,1,1.26-.58,2.46,2.46,0,0,1,1.91.27,2.79,2.79,0,0,1,1.13,1.71l.1.37a.22.22,0,0,1-.16.24c-1.37.34-2.06.49-3.44.75a1.22,1.22,0,0,0,.61.72,1.46,1.46,0,0,0,1,.11,1.8,1.8,0,0,0,1.14-.69.27.27,0,0,1,.33-.07l.59.35a.19.19,0,0,1,.08.25,2.35,2.35,0,0,1-.7.75A3.38,3.38,0,0,1,195.63,215.77Zm-1.1-4.19a1,1,0,0,0-.66.42,1.43,1.43,0,0,0-.2.86c.84-.15,1.26-.24,2.1-.43l0-.11a1,1,0,0,0-.43-.65A1,1,0,0,0,194.53,211.58Z"/><path class="cls-25" d="M201,212.49c0-1.42-.06-2.13-.14-3.54a.22.22,0,0,1,.15-.21l1.1-.4a.15.15,0,0,1,.2.13c0,2.09.05,3.14,0,5.25a.25.25,0,0,1-.16.21l-1.16.37a.25.25,0,0,1-.26-.07c-1.35-1.65-2-2.5-3.19-4.22a.15.15,0,0,1,.09-.23l1.12-.31a.2.2,0,0,1,.24.08C199.71,210.74,200.12,211.32,201,212.49Z"/><path class="cls-25" d="M176.41,216.6a2.09,2.09,0,0,1-1.6-1,3.55,3.55,0,0,1,.59-4,2.07,2.07,0,0,1,1.71-.5,2.32,2.32,0,0,1,1.3.48c.09-.92.13-1.38.22-2.3a.14.14,0,0,1,.15-.13l1.14.09a.14.14,0,0,1,.13.15c-.19,2.91-.29,4.36-.51,7.27,0,.08-.08.13-.17.13-.53,0-.79-.05-1.32-.1m-2-2.91a1.87,1.87,0,0,0,.13,1.17,1,1,0,0,0,.79.49h0a1,1,0,0,0,1.12-.84c.06-.51.08-.77.13-1.28a1,1,0,0,0-.86-1h0C176.63,212.28,176.19,212.77,176,213.86Z"/><path class="cls-6" d="M209.41,193.5c-1.24,10.85-4.71,12.18-6.58,13.62-2.63-2.48-3.44-6.71-3.44-8.56-1,.13-3.91,3.26-3.35,8.28-3.16-.19-9.18.06-12-7.35-4.12,5.57-11.29,6.46-14.79,6.14.68-1.38,3.23-4.64,2.42-5.95-1.83,2.26-7.07,5-10.14,5.11.43-2.25.91-4.57,0-6.23-3.16.28-3.91,4.87-4.21,6.56-5-4.33-2-14.56,1.58-20"/><path class="cls-22" d="M160.72,187.77a10.19,10.19,0,0,0,3.56,6.42,5.74,5.74,0,0,1,4.84-4.89,3.51,3.51,0,0,1,.61,4.4,8.78,8.78,0,0,0,6.42-3.24,4.92,4.92,0,0,1,.08,4.13c4-.83,6.68-3.74,8.84-6.91a16,16,0,0,0,9.29,11.7c.45-4.22,2.24-8.41,6-10.87a7.81,7.81,0,0,1,1,5.87,13.32,13.32,0,0,0,6.85-6.73l.46,0a12.74,12.74,0,0,1-7.87,11.54,7.85,7.85,0,0,0-.94-5.87c-3.79,2.46-5.57,6.65-6,10.87a16,16,0,0,1-9.3-11.7c-2.15,3.17-4.87,6.08-8.84,6.91a4.92,4.92,0,0,0-.08-4.13,8.78,8.78,0,0,1-6.42,3.24,3.49,3.49,0,0,0-.6-4.4,5.75,5.75,0,0,0-4.85,4.89A10,10,0,0,1,160.72,187.77Z"/><path class="cls-26" d="M218.68,224.24s3.47-.25,4,2.69c0,0,.34,3.19-3.32,5C219.32,231.91,223.79,225.65,218.68,224.24Z"/><path class="cls-26" d="M147.92,223.24s-3.46-.25-3.95,2.69c0,0-.35,3.19,3.31,5C147.28,230.91,142.81,224.65,147.92,223.24Z"/><path class="cls-27" d="M194.08,258.8a23.26,23.26,0,0,0,4.55-6.63,9.71,9.71,0,0,1,3,5.55.74.74,0,0,1-.63.85C198.73,258.81,196.29,258.54,194.08,258.8Z"/><path class="cls-27" d="M165.74,258.55a7.58,7.58,0,0,1,1.87-5.19,35.43,35.43,0,0,0,7,6.27,71.83,71.83,0,0,1-7.41.28A1.43,1.43,0,0,1,165.74,258.55Z"/><path class="cls-28" d="M178.58,246.81c-.92.42-1.75,1.28-2.74,1.1a1.9,1.9,0,0,1-1.25-2.39,4.42,4.42,0,0,1,1.91-2.28,13.81,13.81,0,0,1,12.41-1.56,4.68,4.68,0,0,1,2.8,2.18,2.1,2.1,0,0,1-1.2,2.92c-1.22.22-2.3-1-3.54-1a4.5,4.5,0,0,0-2.34,1.34C182.26,249,181.18,245.61,178.58,246.81Z"/><path class="cls-13" d="M178.1,245.62c-.92.42-1.75,1.28-2.74,1.1a1.91,1.91,0,0,1-1.25-2.39c.26-1,1.44-1.67,2.16-2.37,5-4.84,7.63-4.38,11.54-1.82,1,.67,2.91,1.42,3.42,2.53a2.1,2.1,0,0,1-1.2,2.92c-1.22.22-2.3-1-3.55-1a4.41,4.41,0,0,0-2.33,1.34C181.78,247.84,180.7,244.42,178.1,245.62Z"/><path class="cls-28" d="M183,239.75c.86-.06,1.63.63,2,.75s.83.67.29,1.07-3.17.43-4,.2-.41-1.07.12-1.23C182.05,240.33,182.33,239.79,183,239.75Z"/><path class="cls-13" d="M161,256a3.86,3.86,0,0,0,1.57,2.37,5.37,5.37,0,0,0,2.57,1,30.52,30.52,0,0,0,5.84-.22c4-.34,8-.55,12-.73s8-.25,12-.23l3,0a21.7,21.7,0,0,0,2.92-.07,6.48,6.48,0,0,0,2.69-.81,4.28,4.28,0,0,0,1.92-2.12A4.26,4.26,0,0,1,204,257.9a7.07,7.07,0,0,1-2.85,1.38,46.26,46.26,0,0,1-6.06.72c-4,.34-8,.55-12,.73s-8,.24-12,.22a24.49,24.49,0,0,1-6.15-.46,6,6,0,0,1-2.75-1.62A3.9,3.9,0,0,1,161,256Z"/><path class="cls-29" d="M180.3,279.48a34.14,34.14,0,0,1,3.07,2.94,6.91,6.91,0,0,1,1.17,6,4.6,4.6,0,0,0,2-3.31l.13,1.95c3.9-4.67,6.41-11.42,5-17.35,0-.14-1.07.08-1.2.09-.86.1-1.71.29-2.56.38a36.83,36.83,0,0,1-9.41-.18c-1.39-.2-1.39-.24-1.39-.1a25.35,25.35,0,0,0,.26,4.36A11.05,11.05,0,0,0,180.3,279.48Z"/><path class="cls-30" d="M190.55,269.77c-.37,0-.79.15-1.21.17a18.8,18.8,0,0,1-2.51,10.38,5.16,5.16,0,0,0-.34-2.52,18.67,18.67,0,0,1-1.23,5.56,7.88,7.88,0,0,0-.61-3.39l-.15,1.23a5.3,5.3,0,0,0-2.75-2.8,13.17,13.17,0,0,1-3.38-2.16,4.15,4.15,0,0,1-.43-.51,11.08,11.08,0,0,0,2.36,3.6,35.7,35.7,0,0,1,3.07,2.95,6.91,6.91,0,0,1,1.17,6,4.62,4.62,0,0,0,2-3.31l.13,1.95c3.91-4.69,6.43-11.28,5-17.21C191.7,269.55,190.87,269.76,190.55,269.77Z"/><path class="cls-30" d="M181.48,276.93a4.5,4.5,0,0,1-.6-1.15,33.68,33.68,0,0,1,2.39,2.53,18,18,0,0,0-.56-1.94l.47.62a12.25,12.25,0,0,1-1.37-3.64,5,5,0,0,0,0,2.51,10.5,10.5,0,0,1-1.51-3.72,8.11,8.11,0,0,0,0,2.78,21.51,21.51,0,0,0-.87-2.15,12.69,12.69,0,0,0-.52-1.88c-.56.73-.29,2.23,0,3A5.2,5.2,0,0,0,181.48,276.93Z"/><path class="cls-10" d="M155.39,221.81l2.77.05s4.52-6.32,13.32-3.81c8.42,2.39,9.26,11.3,8,12.74a7.19,7.19,0,0,1,7.16-.09c-1.77-3.49,2.28-12.75,10.6-13.07,6.61,0,8.28,1.35,10.7,4.14,1.16,0,2.84,0,2.84,0l-.14,2.47-1.77.09A11.4,11.4,0,0,1,197.39,241c-6-.57-8.27-3.8-8.88-4.69-1.21.28-4.48-1.84-3.54-4.93a7.5,7.5,0,0,0-3.58,0c.35.93.37,2.81-1.86,4.28-.7.27-1.18.61-1.68.13-2.18,2.33-3.9,5.31-11.72,5.31-4.79-.84-13.39-6.14-9-16.75a6.05,6.05,0,0,1-1.67-.14Z"/><path class="cls-29" d="M155.42,221.85s-.1-.07-.1,0c0,.82,0,1.67.09,2.48,0,.1.19.13.19,0C155.59,223.51,155.5,222.67,155.42,221.85Z"/><path class="cls-29" d="M157.94,224.43s0,0,0,0a.13.13,0,0,0-.11-.12,9.13,9.13,0,0,0-2.09,0,.06.06,0,0,0,0,.12,9.87,9.87,0,0,0,2.1.11l0,0,0,.4c0,.09.16.09.14,0S158,224.58,157.94,224.43Z"/><path class="cls-29" d="M169.6,217.63a12,12,0,0,0-11.47,4.05h0a23.2,23.2,0,0,0-2.63.16c-.06,0,0,.09,0,.1a21.54,21.54,0,0,0,2.54-.05s0,0,.05,0h.06a.08.08,0,0,0,.07-.12,13.4,13.4,0,0,1,5.12-3.36,13.64,13.64,0,0,1,6.25-.55C169.73,217.85,169.73,217.66,169.6,217.63Z"/><path class="cls-29" d="M158,235.83a11,11,0,0,1-.67-11.42s-.06-.1-.09-.06a10.36,10.36,0,0,0,.57,11.6C157.86,236.07,158,236,158,235.83Z"/><path class="cls-29" d="M179.4,231.78a12.12,12.12,0,0,1-3.86,6.39,10.88,10.88,0,0,1-3.5,2,18.1,18.1,0,0,1-4,.68,0,0,0,0,0,0,.08c2.61.4,5.58-.84,7.6-2.42a11.17,11.17,0,0,0,4-6.63C179.67,231.74,179.43,231.64,179.4,231.78Z"/><path class="cls-29" d="M186.52,230.35a7.16,7.16,0,0,0-6.66,0c1.51-5.14-3.19-10.6-7.41-12.08-.06,0-.08.05,0,.08a17.11,17.11,0,0,1,5.63,4.79,9.16,9.16,0,0,1,1.34,7.52c0,.18.25.36.32.15a1.83,1.83,0,0,0,.08-.25,7.44,7.44,0,0,1,6.6.07C186.61,230.76,186.72,230.45,186.52,230.35Z"/><path class="cls-29" d="M167,241a12.54,12.54,0,0,1-8.32-3.94c0-.05-.11,0-.07,0a10.84,10.84,0,0,0,8.4,4.19C167.23,241.28,167.2,241,167,241Z"/><path class="cls-29" d="M158.62,221.85a7.28,7.28,0,0,1-2.58.52c-.09-.09-.19-.16-.28-.24a2.26,2.26,0,0,0-.31-.23s-.1,0-.07.08a2.4,2.4,0,0,0,.27.28l.11.12s0,.08,0,.09l.09,0a7,7,0,0,0-.08.92,4,4,0,0,0,0,.85c0,.13.22.17.24,0a4,4,0,0,0,0-.85,8.67,8.67,0,0,0-.06-.89.08.08,0,0,0,.13,0,4.63,4.63,0,0,0,2.7-.4C158.94,222.06,158.77,221.8,158.62,221.85Z"/><path class="cls-29" d="M159.77,222.75c-.14.14.1.35.25.21a10.5,10.5,0,0,1,10.53-2.41,10.12,10.12,0,0,1,6.94,8.47,9.34,9.34,0,0,1-5.47,9.16,10.43,10.43,0,0,1-10.73-1.42,9,9,0,0,1-2.24-11.25c0-.08-.08-.11-.12,0a9.06,9.06,0,0,0,1.16,10.43,10.68,10.68,0,0,0,10.77,3,9.83,9.83,0,0,0,7-8.16,10.12,10.12,0,0,0-5.8-10A10.8,10.8,0,0,0,159.77,222.75Z"/><path class="cls-29" d="M166.11,219.8a8.39,8.39,0,0,0-7.79,7.15,0,0,0,0,0,.08,0,8.89,8.89,0,0,1,7.76-6.9C166.34,220.05,166.28,219.79,166.11,219.8Z"/><path class="cls-29" d="M210.71,221.85s.1-.07.1,0c0,.82,0,1.67-.09,2.48,0,.1-.19.13-.19,0C210.54,223.51,210.63,222.67,210.71,221.85Z"/><path class="cls-29" d="M208.19,224.43a0,0,0,0,1,0,0,.12.12,0,0,1,.11-.12,9.13,9.13,0,0,1,2.09,0c.07,0,.06.11,0,.12a9.74,9.74,0,0,1-2.09.11l-.05,0,0,.4c0,.09-.16.09-.14,0S208.16,224.58,208.19,224.43Z"/><path class="cls-29" d="M196.53,217.63A12,12,0,0,1,208,221.68h0a23.06,23.06,0,0,1,2.63.16c.07,0,0,.09,0,.1a21.71,21.71,0,0,1-2.55-.05s0,0-.05,0h0a.08.08,0,0,1-.07-.12,13.4,13.4,0,0,0-5.12-3.36,13.66,13.66,0,0,0-6.25-.55C196.4,217.85,196.4,217.66,196.53,217.63Z"/><path class="cls-29" d="M208.18,235.83a11,11,0,0,0,.67-11.42s.06-.1.09-.06a10.38,10.38,0,0,1-.57,11.6C208.27,236.07,208.09,236,208.18,235.83Z"/><path class="cls-29" d="M186.73,231.78a12.06,12.06,0,0,0,3.86,6.39,10.67,10.67,0,0,0,3.5,2,18.1,18.1,0,0,0,4,.68s0,.08,0,.08c-2.61.4-5.57-.84-7.59-2.42a11.17,11.17,0,0,1-4-6.63C186.45,231.74,186.7,231.64,186.73,231.78Z"/><path class="cls-29" d="M193.68,218.29s.07.05,0,.08a17,17,0,0,0-5.63,4.79,9.16,9.16,0,0,0-1.35,7.52c.05.18-.24.36-.32.15C184.49,225.52,189.14,220.27,193.68,218.29Z"/><path class="cls-29" d="M199.09,241a12.51,12.51,0,0,0,8.32-3.94c0-.05.12,0,.08,0a10.88,10.88,0,0,1-8.4,4.19C198.9,241.28,198.93,241,199.09,241Z"/><path class="cls-29" d="M207.51,221.85a7.24,7.24,0,0,0,2.58.52,3.22,3.22,0,0,1,.28-.24,1.78,1.78,0,0,1,.31-.23s.1,0,.07.08a2.4,2.4,0,0,1-.27.28l-.12.12c.06,0,0,.08,0,.09l-.09,0a7,7,0,0,1,.08.92,4.83,4.83,0,0,1,0,.85c0,.13-.22.17-.25,0a4,4,0,0,1,0-.85,6.54,6.54,0,0,1,.06-.89.1.1,0,0,1-.14,0,4.63,4.63,0,0,1-2.7-.4C207.19,222.06,207.36,221.8,207.51,221.85Z"/><path class="cls-29" d="M206.36,222.75c.14.14-.11.35-.25.21a10.51,10.51,0,0,0-10.53-2.41,10.11,10.11,0,0,0-6.94,8.47,9.34,9.34,0,0,0,5.47,9.16,10.41,10.41,0,0,0,10.72-1.42,9,9,0,0,0,2.24-11.25c0-.08.09-.11.13,0A9.08,9.08,0,0,1,206,235.9a10.69,10.69,0,0,1-10.78,3,9.82,9.82,0,0,1-6.95-8.16,10.12,10.12,0,0,1,5.8-10A10.81,10.81,0,0,1,206.36,222.75Z"/><path class="cls-29" d="M200,219.8a8.4,8.4,0,0,1,7.79,7.15c0,.05-.07.07-.08,0a8.9,8.9,0,0,0-7.76-6.9C199.79,220.05,199.85,219.79,200,219.8Z"/><path class="cls-29" d="M186.78,231.78a8.26,8.26,0,0,0-7.57.21c-.07,0,0,.15.07.12a8.8,8.8,0,0,1,7.36,0C186.89,232.25,187,231.89,186.78,231.78Z"/><path class="cls-29" d="M181.47,231.51s-.12,0-.09,0c.51,1.13-1.78,5.33-3.28,4.17a.11.11,0,1,0-.14.17c1,.76,1.94-.28,2.49-1.11S182.19,232.37,181.47,231.51Z"/><path class="cls-29" d="M188.54,236.3a2.8,2.8,0,0,1-2.65-1.59c-.56-.86-1.51-2.31-.75-3.3,0,0,0-.11-.07-.08-.94.78,0,2.4.44,3.22.64,1.11,1.67,2.33,3.1,2C188.74,236.49,188.66,236.28,188.54,236.3Z"/><path class="cls-29" d="M157.59,224.5a9,9,0,0,0-1.58,5c0,.05.1.08.1,0a8.48,8.48,0,0,1,1.67-4.85C157.86,224.54,157.67,224.38,157.59,224.5Z"/><path class="cls-29" d="M181.68,231.42c-.11-.22-.49-.13-.36.11.81,1.55-1.57,4.68-3.27,4.13,0-.12-.2-.2-.28-.08A13,13,0,0,1,167,241.06c-.08,0,0,.12,0,.13A12.31,12.31,0,0,0,178,235.83C179.79,237.08,182.44,233,181.68,231.42Z"/><path class="cls-29" d="M188.39,236.15a2.8,2.8,0,0,1-2.62-1.67c-.52-.89-1.12-1.92-.73-3,0-.06-.08-.14-.12-.08-.75,1,.13,2.53.7,3.46s1.65,1.92,2.87,1.6C188.7,236.44,188.57,236.15,188.39,236.15Z"/><path class="cls-29" d="M180.54,232a.62.62,0,0,0-.76-.13c-.07,0,0,.12,0,.12.9,0,.46,1,.25,1.5a1.46,1.46,0,0,1-1.44,1,.14.14,0,1,0,0,.27c1,.17,1.61-.78,1.85-1.62C180.54,232.77,180.74,232.28,180.54,232Z"/><path class="cls-29" d="M187.52,235a4.81,4.81,0,0,1-1.05-1.24c-.25-.45-.86-1.67-.27-2.08.07-.05,0-.16-.09-.12-.56.32-.29,1.11-.13,1.6a4.79,4.79,0,0,0,1.35,2.07A.15.15,0,1,0,187.52,235Z"/><path class="cls-29" d="M157.25,223.13a.37.37,0,0,0-.49,0,.32.32,0,0,0,0,.41.34.34,0,0,0,.29.22.36.36,0,0,0,.38-.21A.41.41,0,0,0,157.25,223.13Z"/><path class="cls-29" d="M209.56,223.26A.42.42,0,0,0,209,223a.41.41,0,0,0-.11.07.31.31,0,0,0-.15.15.44.44,0,0,0,0,.32.42.42,0,0,0,.51.25A.37.37,0,0,0,209.56,223.26Z"/><path class="cls-29" d="M167.83,219.8a9.4,9.4,0,0,0-9.83,8.72c-.69,7.28,5.2,10.46,9.83,10.57a9.73,9.73,0,0,0,9.93-9.3C178.24,223.68,171.44,220.12,167.83,219.8Z"/><path class="cls-29" d="M198.86,219.86c-3.09-.06-9.89,2.28-10.36,9.83s6.85,9.51,9.77,9.45,9.62-1.27,10-9.35S201.94,219.91,198.86,219.86Z"/><g class="cls-12"><path class="cls-10" d="M188.74,232.63a10.75,10.75,0,0,0,1.34,3.28l15.11-14a10.44,10.44,0,0,0-3.16-1.59Z"/><path class="cls-10" d="M206.1,222.67l-15.33,14.2a10.15,10.15,0,0,0,.87,1L207,223.62A11.5,11.5,0,0,0,206.1,222.67Z"/></g><g class="cls-12"><path class="cls-10" d="M157.86,232.76A10.35,10.35,0,0,0,159.2,236l15.1-14a10.53,10.53,0,0,0-3.16-1.58Z"/><path class="cls-10" d="M175.22,222.8,159.89,237a10,10,0,0,0,.87,1l15.36-14.22A10.11,10.11,0,0,0,175.22,222.8Z"/></g></g><g class="cls-31"><rect class="cls-4" x="352.69" y="-30.9" width="412.85" height="654.89"/></g></g></g></svg>