<svg xmlns="http://www.w3.org/2000/svg" xmlns:xlink="http://www.w3.org/1999/xlink" viewBox="0 0 361.53 365.3"><defs><style>.cls-1{fill:none;}.cls-2{isolation:isolate;}.cls-3{clip-path:url(#clip-path);}.cls-4{fill:#d5f4f1;}.cls-5{clip-path:url(#clip-path-2);}.cls-6{fill:#86999c;}.cls-7{fill:#e0e4f5;}.cls-8{fill:#b53945;}.cls-9{fill:#f2687c;}.cls-10{opacity:0.35;}.cls-11{fill:#fff;}.cls-12{fill:#e84142;}.cls-13{opacity:0.16;}.cls-14,.cls-19,.cls-20,.cls-22{fill:#a3b4b7;}.cls-15{fill:#b4c1c1;}.cls-16{fill:#bcccce;}.cls-17,.cls-29{opacity:0.68;}.cls-18,.cls-29{fill:#687f83;}.cls-19,.cls-21{opacity:0.3;}.cls-19,.cls-21,.cls-22{mix-blend-mode:multiply;}.cls-20{opacity:0.4;mix-blend-mode:screen;}.cls-23{fill:#c7cce2;}.cls-24{fill:#a6b2d2;}.cls-25{fill:#ea3c38;}.cls-26{fill:#fdfdfd;}.cls-27{fill:#7c7b7b;}.cls-28{fill:#faf7d6;}.cls-30{fill:#5e5b5b;}.cls-31{fill:#494949;}</style><clipPath id="clip-path"><rect class="cls-1" x="403.08" y="21.99" width="321.32" height="321.32" rx="22.83"/></clipPath><clipPath id="clip-path-2"><rect class="cls-1" x="20.11" y="21.99" width="321.32" height="321.32"/></clipPath></defs><g class="cls-2"><g id="Layer_1" data-name="Layer 1"><g class="cls-3"><rect class="cls-4" x="352.69" y="-30.9" width="412.85" height="654.89"/></g><g class="cls-5"><rect class="cls-4" x="-30.28" y="-30.9" width="412.85" height="654.89"/><path class="cls-6" d="M141.22,350.12s8.09,14.28,5.16,31.07L222,384s-3.19-16.29,2.25-29.27C228.36,344.9,141.22,350.12,141.22,350.12Z"/><path class="cls-7" d="M109.35,220.22c-.06.11-6.82,10.88-9.1,11.86-.37.16,7.94,1,11-2,.06-.06-3.47.35-4.14.37s-1.14,0-1,0c2.67-.65,4.33-3.8,4.53-4.14-2.83,1.92-5,2.47-4.73,2.21C108.24,226.42,109.35,220.32,109.35,220.22Z"/><path class="cls-7" d="M258.59,217.14c.08.1,8.92,9.23,11.34,9.73.4.08-7.55,2.66-11.13.31-.08-.05,3.46-.37,4.12-.49s1.12-.23,1-.23c-2.74-.08-5-2.83-5.28-3.12,3.17,1.3,5.43,1.38,5.09,1.19C261,223,258.61,217.23,258.59,217.14Z"/><circle class="cls-8" cx="177.76" cy="102.49" r="58.79"/><circle class="cls-9" cx="177.86" cy="102.59" r="57.61"/><g class="cls-10"><path class="cls-11" d="M217.65,60.93l-84.37,78.14q1.83,2.24,3.87,4.28l84.47-78.24C220.36,63.65,219,62.25,217.65,60.93Z"/><path class="cls-11" d="M232.1,83.13a57.23,57.23,0,0,0-6.42-12.68l-83.51,77.36a57.6,57.6,0,0,0,12.14,7.37Z"/><path class="cls-11" d="M123.38,121.35a57.65,57.65,0,0,0,6.79,13.57l83.57-77.41a57.63,57.63,0,0,0-13-7.81Z"/></g><circle class="cls-8" cx="177.86" cy="102.59" r="51.35"/><circle class="cls-12" cx="177.86" cy="102.59" r="48.96"/><g class="cls-13"><path class="cls-11" d="M130,113.22a48.62,48.62,0,0,0,6.26,15.33l70.69-65.48a48.94,48.94,0,0,0-14.79-7.42Z"/><path class="cls-11" d="M211.2,66.61l-71.76,66.46a49.33,49.33,0,0,0,4.1,4.57l71.89-66.59A47.94,47.94,0,0,0,211.2,66.61Z"/><path class="cls-11" d="M225.57,91.15a48.77,48.77,0,0,0-5.94-14.3L149,142.26a48.73,48.73,0,0,0,13.8,7Z"/></g><path class="cls-8" d="M158,122.21c-2.15,0-4.29,0-6.43,0-4.37,0-5.57-2-3.43-5.79l17-29.93q5.63-9.92,11.27-19.81a8.46,8.46,0,0,1,1.13-1.63,2.71,2.71,0,0,1,4.28-.06,8.41,8.41,0,0,1,1.15,1.61q3.41,6,6.78,12a9.28,9.28,0,0,1,0,9.75q-8.4,14.58-16.83,29.14a9,9,0,0,1-8.33,4.75C162.37,122.2,160.17,122.21,158,122.21Z"/><path class="cls-8" d="M198.81,122.21c-3.32,0-6.64,0-10,0s-4.71-2.28-3-5.23q5-8.72,10.06-17.34c1.74-3,4.32-2.92,6,.06q5,8.6,9.85,17.28c1.67,3,.38,5.19-3,5.23S202.13,122.21,198.81,122.21Z"/><path class="cls-11" d="M155,123.13h-6.43c-4.37,0-5.57-2-3.43-5.79q8.49-15,17-29.94l11.27-19.81A8.38,8.38,0,0,1,174.51,66a2.71,2.71,0,0,1,4.28-.06,8.41,8.41,0,0,1,1.15,1.61q3.41,6,6.77,12a9.24,9.24,0,0,1,0,9.74q-8.4,14.6-16.83,29.15a9,9,0,0,1-8.33,4.75C159.37,123.11,157.17,123.13,155,123.13Z"/><path class="cls-11" d="M195.81,123.13c-3.32,0-6.64,0-10,0s-4.71-2.27-3-5.22q5-8.72,10.06-17.35c1.74-2.94,4.32-2.91,6,.06q5,8.61,9.85,17.29c1.67,3,.38,5.19-3,5.22S199.13,123.13,195.81,123.13Z"/><path class="cls-14" d="M120.26,147.91l-10.53-18.56a6.15,6.15,0,0,1-1.09-3.29,4.1,4.1,0,0,1,2.08-3,12.22,12.22,0,0,1,3.56-1.23c3,1.87,4.2,4.86,5.16,8.27a43.08,43.08,0,0,1,1.17,10.52l.21,7.37C120.32,148.15,120.51,148.37,120.26,147.91Z"/><path class="cls-15" d="M111.86,125.89a35.22,35.22,0,0,1-3.14-4.41,7.47,7.47,0,0,1-1-5.18,3.63,3.63,0,0,1,4.69-2.45c2,.6,3.7,2.5,4.74,4.65a19.63,19.63,0,0,1,1.64,6.87c.13,1.6,1,10.71-1,10.58C117,135.89,112.89,127.25,111.86,125.89Z"/><path class="cls-16" d="M119,105.57c-.08-1.59-1.08.68-2.59,1.21-4.88,1.73-1.83,9.33-2.44,14.47a14,14,0,0,0,.93,8c1.3,2.59,2.82,5.16,3.24,8,1.07,7.1,1.44,14.56,6.89,19.22s10.84,8.45,17.69,6.31c6.56-3.21,8.72-14.23,3.58-24.59-1.57-3.16-2.41-6.93-1.31-10.28.8-2.41-2.83-4.71-5.37-4.6a5.44,5.44,0,0,0-5,4.87c-.16,2.15,1,4.16,1.69,6.21s.75,4.7-1,6c-5.26-4.55-7.73-7.79-12-17.07a107.19,107.19,0,0,1-3.69-13S119,106.59,119,105.57Z"/><g class="cls-17"><path class="cls-18" d="M136.89,127.85c.05,2.16.63,2.9,1.33,5s2.1,6.41.35,7.67c-1.4,1-2.31.49-3.28-.07.25-.23,2.41-1.72.94-6-.7-2.05-1.85-4.05-1.69-6.21a5.45,5.45,0,0,1,5-4.87,6.27,6.27,0,0,1,3.11.82C139.05,122.4,136.84,125.8,136.89,127.85Z"/><path class="cls-18" d="M118.92,105.11c-4.12,1.39-3.58,11.06-2.35,16.93a30.08,30.08,0,0,0,2.6,7.8c1.3,2.59,3.65,5.15,3.25,8-1.85,13,1.44,14.55,6.88,19.22a19.18,19.18,0,0,0,8.24,4A20.79,20.79,0,0,1,125,156.49c-5.44-4.67-6.11-13-7.18-20.13-.42-2.87-1.65-4.52-3-7.11a23.46,23.46,0,0,1-2.37-7.9c-.65-5.16-.57-10.78,2.48-14.45a9.44,9.44,0,0,1,3.91-2.82"/></g><path class="cls-14" d="M240.2,142.54q4.06-9.85,8.14-19.72a6,6,0,0,0,.67-3.41,4.07,4.07,0,0,0-2.43-2.72,12.09,12.09,0,0,0-3.69-.78c-2.74,2.23-3.56,5.35-4.09,8.84a43.07,43.07,0,0,0,.14,10.58c.23,2.45.47,4.9.7,7.35C240.16,142.79,240,143,240.2,142.54Z"/><path class="cls-15" d="M245.8,119.65a35.29,35.29,0,0,0,2.57-4.77,7.42,7.42,0,0,0,.32-5.26,3.64,3.64,0,0,0-5-1.85,8.64,8.64,0,0,0-4.12,5.21,19.44,19.44,0,0,0-.78,7c.07,1.6.38,10.74,2.33,10.36C241.91,130.21,245,121.13,245.8,119.65Z"/><path class="cls-16" d="M236.24,100.37c-.12-1.6,1.16.54,2.72.88,5,1.1,3,9,4.21,14a14.06,14.06,0,0,1,.07,8.06c-1,2.73-2.16,5.46-2.23,8.36-.17,7.17.38,14.62-4.45,19.92s-13.16,7.38-20.22,6.1l-4.57-11.26c-1.32-3.27.52-6.93,1.42-10.35s1.53-7.17,0-10.36c-1.08-2.3,2.24-5,4.77-5.23a5.42,5.42,0,0,1,5.56,4.21c.43,2.12-.47,4.25-.91,6.37s-.16,4.77,1.74,5.8c4.65-5.16,7.48-12,9.76-18.42a107.58,107.58,0,0,0,2.05-13.31S236.32,101.38,236.24,100.37Z"/><g class="cls-17"><path class="cls-18" d="M220.33,124c.43,2.12-.56,4.81-.49,7,.19,5.15,3.21,6.56,4.54,6-2.47-1.67-2-4.64-1.71-5.85.43-2.12,1.34-4.25.91-6.37a5.43,5.43,0,0,0-5.56-4.21,6.13,6.13,0,0,0-3,1.2C217.68,120.66,219.92,121.93,220.33,124Z"/><path class="cls-18" d="M236.23,99.9c4.26.87,4.92,10.53,4.42,16.51a30.28,30.28,0,0,1-1.61,8.06c-1,2.73-2.16,5.46-2.23,8.36-.18,7.17.37,14.62-4.46,19.92a19.19,19.19,0,0,1-7.68,5c4.57-.77,6.79-4.39,10.87-6.18,5.72-2.52,5.34-12.69,5.51-19.86.07-2.9,1.26-5.63,2.23-8.36a23.42,23.42,0,0,0,1.37-8.13c0-5.21-.76-10.77-4.25-14a9.35,9.35,0,0,0-4.23-2.32"/></g><path class="cls-14" d="M301.26,216.61c-.22-.33-.48-.64-.75-1-2.8-3.56-7.05-11.35-9.71-16.2s-10.07-12.42-18.35-16.3c-6.55-3.05-16.91-10.05-22.68-14.08-1.53-1.07-2.74-1.95-3.47-2.48a18.34,18.34,0,0,1-1.07,2.54c-2.18,4.37-6.74,10.53-9.57,12.18a69.14,69.14,0,0,1,13,13.06c3.29,4.29,8.08,10.95,9.59,15.09a73.12,73.12,0,0,0,3.09,7.63l0,0c1.87,3.8,4.54,7.83,8.25,10.11-6.38.51-15.72,3.91-23.59,11.69-6.81,6.75-12.58,17.31-13.85,25.58a46,46,0,0,1-11.42,17.2c-5.64,5.77-8.06,10.17-7.22,15.15l0,0h0l.09.06c3.64,2.85,9,5,14.26,6.24,5.1,1.22,10.13,1.65,13.48,1.16l.66-.09c6.88-1.22,16.77-6,22.06-23.54,10.69-6.55,14.15-14.71,14.72-19.78,6.77-5.33,9.23-10.25,11.55-15s2.82-6.94,5.81-11.53,4.33-6.27,5.58-9.4C302.79,222.53,304.61,221.26,301.26,216.61Z"/><path class="cls-14" d="M269.64,227.2a35.65,35.65,0,0,0-13.36,4.18,43.33,43.33,0,0,0-11.16,8.47A54.82,54.82,0,0,0,237,251.28a42.93,42.93,0,0,0-4.76,13.19,42.27,42.27,0,0,1,2.45-6.56,52.74,52.74,0,0,1,3.22-6.14,58.86,58.86,0,0,1,8.23-11,45.72,45.72,0,0,1,10.67-8.49,40.31,40.31,0,0,1,6.19-3A36.72,36.72,0,0,1,269.64,227.2Z"/><path class="cls-19" d="M301.27,216.61c-.22-.33-.48-.64-.75-1-2.8-3.56-7-11.35-9.71-16.2S280.74,187,272.46,183.13c-6.55-3.06-16.91-10.06-22.68-14.09-1.53-1.07-2.74-1.94-3.47-2.48a18.93,18.93,0,0,1-1.07,2.55c6.58,5.45,20.7,14,26.37,17,6.55,3.46,12.2,8.47,14.35,12s6,11.23,8.62,14,5.31,7,5.73,9.6-4,8-5.33,10.24a73.8,73.8,0,0,0-4.09,7.59c-1.09,2.51-1.8,9.21-8,16.14-.37-3.36,1.14-9.13,2.77-14.45a23.17,23.17,0,0,1-1.92,2.73c-3.27,3.77-5,13.62-5.68,17.17s-4.14,12.36-10.15,15.54c.26-3.58.66-11.31-.77-17-3,3-12,7.09-22.83,7.13,10.12,1.84,16.16.63,20.4-.9-.24,6.18.5,31-21.85,36.86-12.18,3.15-27.57-5-29.15-5.85,3.64,2.85,9,5,14.26,6.24,5.1,1.22,10.13,1.65,13.48,1.17l.66-.1c6.88-1.22,16.77-6,22.06-23.54,10.69-6.54,14.15-14.7,14.72-19.78,6.77-5.33,9.23-10.25,11.55-15s2.82-6.94,5.81-11.53,4.33-6.27,5.58-9.4C302.8,222.53,304.62,221.26,301.27,216.61Z"/><path class="cls-19" d="M273.44,211.21c7.79,2,15.45,4.89,18.13,9.47.21.35.39.7.58,1a16.36,16.36,0,0,1-2.92,8,14.51,14.51,0,0,0-.13-2.21C288.28,222.06,283.94,215.56,273.44,211.21Z"/><path class="cls-20" d="M270,274.17a32.62,32.62,0,0,0-.37-10.13,44.46,44.46,0,0,0,9.58-12.79C278.16,262.74,274,269.35,270,274.17Z"/><path class="cls-20" d="M260.48,285.75c-3.84,9-9.69,14.17-19.27,15.75s-22.73-4.43-23.83-7.31,7.39-7,15.16-16.56c7.39-9.09,24.37-7.67,27.54-7.44S263,279.85,260.48,285.75Z"/><path class="cls-20" d="M260.32,259.89c-4.88,2.4-10.53,2.78-12.26,2s-5.08-2.94-2-8.81,10.32-13.79,19.08-16.43,12-2.23,13.75.44-2.42,10.36-6.82,14.41A47.73,47.73,0,0,1,260.32,259.89Z"/><path class="cls-20" d="M286.29,225.3a14.22,14.22,0,0,1,.4,2.32,27.8,27.8,0,0,1-1.77,11.09,13.48,13.48,0,0,0-3.32-8.3,10.94,10.94,0,0,0-5.79-3.49c-4.76-1.48-8.57-3.92-11.3-8.12a43.65,43.65,0,0,1-5.27-12.15c-1.55-5.66-13-19.82-14.42-21s-.71-2.75,3.61-.2,17.06,11,23.78,14,13.42,7.51,16.24,10.25a23.44,23.44,0,0,1,5.18,8.42,29,29,0,0,0-10.45-6.19c-3.65-1.09-10.26-1.31-17.09-4.5a24.08,24.08,0,0,0,9.1,6.54C280.27,216.24,284.85,219.89,286.29,225.3Z"/><path class="cls-14" d="M67.49,228.28c.15-.37.34-.72.53-1.12,2-4.06,4.58-12.55,6.19-17.84s7.32-14.22,14.63-19.71c5.79-4.33,14.5-13.29,19.32-18.42,1.29-1.36,2.29-2.47,2.9-3.14a17.3,17.3,0,0,0,1.56,2.27c3,3.83,8.76,8.92,11.86,10a68.79,68.79,0,0,0-10.08,15.45c-2.35,4.88-5.68,12.37-6.31,16.73a72.9,72.9,0,0,1-1.46,8.11l0,0c-1,4.1-2.84,8.59-6,11.58,6.35-.8,16.18.62,25.48,6.62,8,5.21,15.85,14.38,18.79,22.21a46,46,0,0,0,14.69,14.5c6.71,4.5,10,8.3,10.16,13.35v0h0s0,0-.07.07c-3,3.53-7.79,6.69-12.68,9-4.74,2.24-9.59,3.69-13,3.9l-.66,0c-7,.21-17.64-2.42-26.42-18.53-11.8-4.22-16.85-11.5-18.45-16.35-7.71-3.84-11.12-8.15-14.37-12.31s-4.18-6.21-8-10.09-5.52-5.25-7.39-8.06C67.2,234.39,65.17,233.52,67.49,228.28Z"/><path class="cls-14" d="M100.61,232.18a35.89,35.89,0,0,1,13.93,1.36,43.2,43.2,0,0,1,12.66,6,54.53,54.53,0,0,1,10.32,9.52A43,43,0,0,1,144.88,261a42.94,42.94,0,0,0-3.75-5.92,51.26,51.26,0,0,0-4.4-5.35,59,59,0,0,0-10.3-9.07,45.51,45.51,0,0,0-12.18-6.12,40.16,40.16,0,0,0-6.68-1.71A37.4,37.4,0,0,0,100.61,232.18Z"/><path class="cls-19" d="M67.48,228.28c.15-.36.34-.72.53-1.12,2-4,4.58-12.55,6.19-17.84s7.32-14.22,14.63-19.7c5.79-4.33,14.5-13.3,19.32-18.43,1.29-1.36,2.29-2.46,2.9-3.13a18.74,18.74,0,0,0,1.56,2.27c-5.32,6.68-17.4,17.9-22.34,22-5.7,4.73-10.21,10.79-11.59,14.69s-3.59,12.22-5.57,15.49-3.78,7.92-3.65,10.57,5.6,7,7.31,8.93a74.26,74.26,0,0,1,5.56,6.59c1.58,2.24,3.64,8.65,11.13,14.17-.33-3.36-3-8.71-5.66-13.58a21.09,21.09,0,0,0,2.43,2.28c4,3,7.7,12.3,9.07,15.65s6.58,11.25,13.11,13.14c-1-3.46-3-10.94-2.72-16.81,3.54,2.31,13.24,4.49,23.81,2.31-9.54,3.88-15.7,3.93-20.15,3.3,1.5,6,5.85,30.48,28.92,31.61,12.57.59,26-10.55,27.34-11.69-3,3.54-7.79,6.69-12.68,9s-9.59,3.68-13,3.89l-.66,0c-7,.21-17.64-2.42-26.42-18.52-11.8-4.23-16.85-11.51-18.45-16.36-7.71-3.83-11.12-8.14-14.37-12.3s-4.18-6.21-8-10.1-5.52-5.25-7.39-8.06C67.19,234.39,65.16,233.52,67.48,228.28Z"/><path class="cls-19" d="M93.62,217.31c-7.22,3.57-14.13,7.94-15.81,13-.13.39-.24.77-.36,1.15a16.34,16.34,0,0,0,4.5,7.23,13,13,0,0,1-.32-2.19C81.31,231,84.23,223.71,93.62,217.31Z"/><path class="cls-20" d="M109.91,278.22a32.56,32.56,0,0,1-1.71-10c-4.11-2.43-9.35-6.85-12-10.56C99.53,268.72,105,274.32,109.91,278.22Z"/><path class="cls-20" d="M121.55,287.62c5.6,8,12.38,11.89,22.08,11.48s21.34-9,21.84-12-8.68-5.36-18.24-13.11c-9.09-7.38-25.42-2.52-28.47-1.65S117.88,282.36,121.55,287.62Z"/><path class="cls-20" d="M116.41,262.27c5.28,1.36,10.88.57,12.42-.54s4.36-3.92.16-9-12.92-11.39-22-12.18-12.18.27-13.37,3.24,4.49,9.65,9.63,12.72A47.79,47.79,0,0,0,116.41,262.27Z"/><path class="cls-20" d="M83.92,233.72a14.48,14.48,0,0,0,.08,2.36,27.78,27.78,0,0,0,4,10.5,13.46,13.46,0,0,1,1.55-8.81,11,11,0,0,1,5-4.6,19.66,19.66,0,0,0,9.4-10.26,43.2,43.2,0,0,0,2.67-13c.36-5.85,8.68-22.06,9.84-23.48s.13-2.83-3.58.55-14.45,14.26-20.42,18.55-11.6,10.08-13.8,13.35a23.25,23.25,0,0,0-3.35,9.3,28.85,28.85,0,0,1,9-8.19c3.35-1.82,9.77-3.39,15.81-7.91a24,24,0,0,1-7.56,8.26C88,223.63,84.23,228.14,83.92,233.72Z"/><path class="cls-14" d="M226.11,402.89c1.34-.27,1.84-7.36-.34-11.56-.8-1.54-2.16-2.94-2.61-4l-1.2-3.42c-.14-3.09.08-4.34-.23-6.75h0a6.9,6.9,0,0,0-.67-2.48,7,7,0,0,1-.51-6.43c.91-2.24.31-8.18,0-11.88s-1.29-9.82,2.52-14.69,9.36-12.61,12.26-19.12,5.39-17.16,6-25.46c.12-1.74.36-4.06.62-6.71.89-10,1.87-24.53-2.87-29.42-6-6.17-18.68-11.42-29.32-13.32-5.51,8.69-15.39,14.58-25.35,14.18-9.56-.35-19.22-6.68-25.33-14.4-6,.75-22.13,7.15-30.13,12.93-5.29,3.84-3.81,18.9-2,30.8.94,6,1.94,11.21,2.21,13.74.79,7.58,5.17,17,8.57,22.43s6.59,9.09,8.58,11.88,3.8,8.59,3.4,13.54-1.34,10.43-.6,13.52.31,4.45-.89,6.55a12.22,12.22,0,0,0-1.2,3.72,41.1,41.1,0,0,0-.48,4.44c0,.14-.26,2.63-.28,2.79s-.1.36-.12.67a57.87,57.87,0,0,1-2.71,13.88S168.06,414.63,226.11,402.89Z"/><path class="cls-20" d="M135.72,286.07c-.26,5.78,6.78,13.37,14.57,14.19s19-.49,25.74-4.12,7.79-18.48,4-22.27-18.16-4.62-27.74-1.32S135.91,281.62,135.72,286.07Z"/><path class="cls-20" d="M237.58,285.58c0,5.33-6.46,14.59-17.65,15.37-7.82.55-19.55-1.18-26.33-4.81s-7.79-18.48-4-22.27,22.83-7.12,32.41-3.82S237.58,280.24,237.58,285.58Z"/><g class="cls-21"><path class="cls-22" d="M241,288c-1.37,3-2.52,7.43-6.88,11.27s-13.46,6.06-19.3,5.3a143.82,143.82,0,0,1-21.56-5.18c-3.59-1.37-6.13-2.36-9-2.36s-6.58,1.25-10.32,2.24a155.64,155.64,0,0,1-21.36,4.19c-8.1.84-19.07-2.81-24-15.46a19.79,19.79,0,0,1-1.87,3.15c.93,6,1.94,11.21,2.2,13.74.79,7.58,5.18,17,8.58,22.43s6.58,9.09,8.57,11.88a23,23,0,0,1,3.4,13.54c-.41,4.95-1.34,10.43-.6,13.52a7.43,7.43,0,0,1-.88,6.55,12.22,12.22,0,0,0-1.2,3.72,34.74,34.74,0,0,0-.6,4.36c0,.14.17.16.15.31,13.1,5.09,22.59,7.5,37.25,7.72S210.9,386.32,222,384c-.14-3.08-.12-4.45-.43-6.86h0a6.7,6.7,0,0,0-.67-2.48,7,7,0,0,1-.5-6.43c.91-2.24.31-8.18,0-11.88s-1.29-9.82,2.51-14.69,9.37-12.61,12.27-19.12,5.39-17.16,6-25.46c.12-1.74.36-4.06.63-6.71A18.55,18.55,0,0,0,241,288Zm-24.46,51.65c-4.28,2.56-6.8,2.91-5.46-2.91s-.14-13-4-16.19-18.71-7.19-22.3-7.19-20.82,3.84-24.1,6.93-3.45,12.37-2.1,18.31a35.36,35.36,0,0,1-13.25-25.3c5.84.38,17.89-3.52,22.08-4.63s13.63-7.07,17.37-7.07,11.06,3.84,15.57,5.71S223,315,230.73,310.64C232.6,320.22,226.3,333.82,216.57,339.64Z"/></g><path class="cls-20" d="M165.46,339.8a32.87,32.87,0,0,1,13.2-.72,4.64,4.64,0,0,1,3.76,3.16c.82,3.28.33,6.82-.72,10.47a1,1,0,0,1-.81.65,56.46,56.46,0,0,1-17.55.16,1,1,0,0,1-.84-.66c-1-3.68-1.42-7.14-.55-10.16A4.57,4.57,0,0,1,165.46,339.8Z"/><path class="cls-20" d="M165.45,321.65a26.72,26.72,0,0,1,12.22-2.48,5.09,5.09,0,0,1,4.88,3.92,20.42,20.42,0,0,1-1,9.12,39.48,39.48,0,0,1-17.44,1.43,15.22,15.22,0,0,1-1-9.36A4.17,4.17,0,0,1,165.45,321.65Z"/><path class="cls-20" d="M203.69,339.8a32.82,32.82,0,0,0-13.19-.72,4.61,4.61,0,0,0-3.76,3.16c-.83,3.28-.34,6.82.71,10.47a1,1,0,0,0,.81.65,56.46,56.46,0,0,0,17.55.16,1,1,0,0,0,.84-.66c1-3.68,1.42-7.14.56-10.16A4.6,4.6,0,0,0,203.69,339.8Z"/><path class="cls-20" d="M203.71,321.65a26.76,26.76,0,0,0-12.23-2.48,5.08,5.08,0,0,0-4.87,3.92,20.41,20.41,0,0,0,1,9.12,39.5,39.5,0,0,0,17.44,1.43,15.15,15.15,0,0,0,1-9.36A4.18,4.18,0,0,0,203.71,321.65Z"/><path class="cls-20" d="M168.09,363.23c.7-4.51,8.87-5.75,17.7-5.86,10.21-.12,17.55,2.1,17.68,6.41"/><path class="cls-7" d="M131.37,145.35c.9,2.4,2.2,5.61,3.1,8,1.62-.76,3.2-1,4.82-1.77-.26,2,.24,4.6,0,6.63,2.33.54,4.1,1.81,6.43,2.35-1.61,1.21-3.85,2.81-5.45,4,2.85,2.24,3.66,6.8,2.17,10.11-1.32-.51-2.88-1.62-3.13-3,.6,4.21-1.63,9.09-4.4,12.3a5.53,5.53,0,0,0-1.72-5.24c-.62,5.79-3.16,10.55-6.83,15.07-1.12-.84-1.94-.41-3-1.25.14,5.73-3.52,11.56-8.46,14.47-.76-1.59-1.64-3.15-2.4-4.74a19.76,19.76,0,0,1-5.71,10.17c-1.4-2.73-2.9-5.86-4.3-8.59a14.27,14.27,0,0,1-6.69,7.06c.44-3.2-.55-7.23-3.38-8.79-2.12,1.23-3.69,3-5.81,4.23-.62-2.45-.67-4.43-1.29-6.89l-8.68.66c3.83-4,7.66-8.1,12.69-10.39-2.57-.23-5.18-1.79-7.74-2,3.66-2.91,6.78-6.72,10.45-9.62-1.47-.21-2.85-.75-4.32-1a41.62,41.62,0,0,1,15.72-14.08,5.71,5.71,0,0,0-5.57-2.45c4-3.61,10.51-5.94,15.87-5.18a12.2,12.2,0,0,0-5.37-4.38c3.22-1.53,8.57.6,10.74-.28a1.59,1.59,0,0,1,1.54.11,63.16,63.16,0,0,0,7.81,4.56C129.23,152.82,128.59,145.29,131.37,145.35Z"/><path class="cls-23" d="M142.41,174.71c-1.32-.51-2.88-1.62-3.13-3,.6,4.21-1.63,9.09-4.4,12.3a5.53,5.53,0,0,0-1.72-5.24c-.62,5.79-3.16,10.55-6.83,15.07-1.12-.84-1.94-.41-3-1.25.14,5.73-3.52,11.56-8.46,14.47-.76-1.59-1.64-3.15-2.4-4.74a19.76,19.76,0,0,1-5.71,10.17c-1.4-2.73-2.9-5.86-4.3-8.59a14.27,14.27,0,0,1-6.69,7.06,10.46,10.46,0,0,0-1.26-6.71,18.65,18.65,0,0,0,1.29-3.91c.76,1.58,1.64,3.15,2.41,4.73,4.93-2.91,8.59-8.74,8.45-14.47,1.12.84,1.94.42,3,1.26,3.68-4.52,6.21-9.29,6.83-15.08a5.52,5.52,0,0,1,1.72,5.25c2.78-3.22,5-8.1,4.4-12.3.26,1.39,1.81,2.51,3.14,3,1.49-3.31.67-7.86-2.18-10.11,1.6-1.21,3.85-2.81,5.45-4-2.33-.54-5.15-1.52-7.48-2.06,1.12-1.12,1.89-1.6,1.33-3a14.53,14.53,0,0,0-3.49-2.93c-2.51-1.54-5.48-6-5.23-8.09,3.69,2,7,3.66,8.65,7.53.85-2.65,5.79-4.74,8.57-4.68.9,2.4,2.2,5.61,3.1,8,1.62-.76,3.2-1,4.82-1.77-.26,2,.24,4.6,0,6.63,2.33.54,4.1,1.81,6.43,2.35-1.61,1.21-3.85,2.81-5.45,4C143.09,166.84,143.9,171.4,142.41,174.71Z"/><path class="cls-11" d="M117.37,158.39c-3.19,1.47-6.41,2.86-9.64,4.22v-1.3c1.55.42,3.09.87,4.63,1.32L117,164l2.6.76-2.46,1.3-7.76,4.09-7.79,4-.62-2.91,10.46.33,6.48.21L112,174.6c-2.1,1-4.22,2-6.33,3s-4.22,2-6.35,3l-.6-2.87,5.56.3,5.11.28-4.49,2.36c-2,1-3.92,2-5.89,3s-3.93,2-5.92,3l-.43-1.89c2.11.2,4.22.37,6.32.59l2.1.23-1.72,1.07a13,13,0,0,0-5.75,8.54,12.75,12.75,0,0,1,4.93-9.71l.37,1.3c-2.12,0-4.23,0-6.35,0H89.07l3.1-1.88c1.89-1.14,3.8-2.24,5.7-3.36s3.8-2.23,5.73-3.31l.62,2.64-5.57-.09-6-.1,5.45-2.77c2.08-1.06,4.19-2.06,6.29-3.09s4.2-2,6.31-3l.63,3-10.46-.47L94.59,174l5.62-2.63,7.94-3.71,8-3.63.14,2.07-4.5-1.73c-1.5-.57-3-1.15-4.49-1.76l-1.85-.74,1.83-.56Q112.29,159.78,117.37,158.39Z"/><path class="cls-7" d="M222.09,146.65c-.39,2.53-1,5.94-1.39,8.47-1.74-.41-3.34-.33-5.08-.74.67,1.93.71,4.55,1.38,6.48-2.17,1-3.64,2.61-5.8,3.61,1.81.86,4.34,2,6.16,2.83-2.34,2.78-2.2,7.41-.07,10.34,1.19-.76,2.49-2.17,2.45-3.59.28,4.24,3.45,8.56,6.83,11.14a5.5,5.5,0,0,1,.61-5.49c1.79,5.55,5.24,9.69,9.76,13.36.92-1,1.81-.8,2.73-1.85,1,5.64,5.81,10.6,11.24,12.44.43-1.71,1-3.42,1.39-5.13A19.62,19.62,0,0,0,260,207.3c.81-3,1.65-6.32,2.45-9.28a14.23,14.23,0,0,0,8,5.54c-1.08-3-.93-7.19,1.52-9.29,2.32.77,4.22,2.18,6.55,2.95.1-2.53-.25-4.48-.15-7l8.63-1.13c-4.56-3.11-9.15-6.37-14.54-7.57,2.47-.75,4.7-2.82,7.17-3.57-4.19-2.09-8-5.19-12.21-7.28,1.4-.5,2.64-1.31,4-1.81a41.58,41.58,0,0,0-18.27-10.56,5.7,5.7,0,0,1,5-3.54c-4.68-2.71-11.51-3.66-16.6-1.83a12.12,12.12,0,0,1,4.36-5.38c-3-6.65-11.32,8.62-11.85,2.91.25-1.09.54-8.68-.16-10.74-3.2,2.75-6.26,6.12-7.11,10.25C225.37,147.54,224.8,146,222.09,146.65Z"/><path class="cls-23" d="M217.29,177.64c1.19-.76,2.49-2.17,2.45-3.59.28,4.24,3.45,8.56,6.83,11.14a5.5,5.5,0,0,1,.61-5.49c1.79,5.55,5.24,9.69,9.76,13.36.92-1,1.81-.8,2.73-1.85,1,5.64,5.81,10.6,11.24,12.44.43-1.71,1-3.42,1.39-5.13A19.62,19.62,0,0,0,260,207.3c.81-3,1.65-6.32,2.45-9.28a14.23,14.23,0,0,0,8,5.54,10.58,10.58,0,0,1-.14-6.83,18.64,18.64,0,0,1-2.06-3.56c-.42,1.71-1,3.42-1.38,5.13-5.43-1.84-10.2-6.8-11.24-12.44-.92,1-1.81.8-2.73,1.85-4.52-3.67-8-7.82-9.77-13.36a5.55,5.55,0,0,0-.61,5.49c-3.37-2.58-6.54-6.9-6.82-11.14,0,1.42-1.26,2.83-2.45,3.59-2.14-2.93-2.27-7.56.06-10.34-1.82-.86-4.34-2-6.16-2.83,2.17-1,3.64-2.61,5.81-3.61-2.44-1.27-2.35-7-1.83-8.76.07-.24,1.15,3.67,3.52,5-.49-1.81-.09-10.07-.75-12-3.2,2.75-6.26,6.12-7.11,10.25-1.37-2.42-1.94-3.94-4.65-3.31-.39,2.53-1,5.94-1.39,8.47-1.74-.41-3.34-.33-5.08-.74.67,1.93.71,4.55,1.38,6.48-2.17,1-3.64,2.61-5.8,3.61,1.81.86,4.34,2,6.16,2.83C215,170.08,215.16,174.71,217.29,177.64Z"/><path class="cls-11" d="M238.47,156.55c3.51.2,7,.48,10.49.79l1.91.17-1.66,1.11c-1.33.89-2.68,1.77-4,2.64l-4.06,2.6-.29-2,8.56,1.92,8.53,2,6,1.42-6,1.56-10.14,2.6v-3.12c2.27.55,4.53,1.14,6.8,1.7s4.54,1.12,6.79,1.73l5.9,1.6-5.9,1.34-5.42,1.23.07-2.72c2.1.67,4.19,1.37,6.28,2.07s4.18,1.39,6.26,2.13L272,178.5l-3.45.72c-2.07.44-4.14.91-6.22,1.32l.11-1.35a12.78,12.78,0,0,1,6.81,8.49,13,13,0,0,0-7.38-7.18l-1.9-.7,2-.65c2-.65,4.05-1.25,6.07-1.87l0,1.93c-2.15-.53-4.27-1.11-6.4-1.68s-4.26-1.13-6.38-1.74l-4.88-1.4,4.95-1.31,5.37-1.44v2.94c-2.28-.5-4.54-1.08-6.82-1.61s-4.55-1.07-6.81-1.64l-6.31-1.58,6.3-1.53,10.17-2.47v3l-8.45-2.32L240.28,164l-2.68-.77,2.39-1.27,4.25-2.27q2.13-1.14,4.27-2.24l.26,1.28C245.33,158,241.9,157.33,238.47,156.55Z"/><path class="cls-7" d="M243.81,309.65a73,73,0,0,1-5.43,26.19c-.79-1.25-1.43-2.49-2.22-3.74a40.86,40.86,0,0,1-12.44,23.66c-.22-1-.69-1.88-.91-2.92-5.15,10.29-13.69,19.27-23.44,25.82-.83-1.69-1.33-2.19-2.16-3.88-1.52,2.2-3.12,4.71-4.63,6.91-2.14-2-4.87-3.93-7-5.88-1,1.93-2.5,3.85-3.53,5.78-2.79-2.17-5.28-4.26-8.07-6.44-.45,1.39-1.21,2.72-1.65,4.1-4.28-1.91-7.76-6-8-10.57-1.31,1.36-3.17,2.45-4.48,3.81-1.36-3.24-3.41-6.94-4.76-10.18-.82.95-2.17,1.73-3,2.67l-5.46-11.56c-1.17,1.71-2.25,2.39-3.41,4.1A54,54,0,0,1,133.89,339c-1.25,1.14-2.45,1.52-3.7,2.65-3.79-8.79-5.59-18.1-4.17-27.54,0-.27-.13.16,0-.11l-4.28,3.5a41.28,41.28,0,0,1,4.73-23.82c-1.08.65-2.1,1.31-3.18,2-1.07-4.42,2.17-9,6.37-11.09s9.11-2.31,13.84-2.34c26.86-.19,53.54,3.55,80.07,7.44,4.92.72,10.09,1.54,14,4.49a14.07,14.07,0,0,1,4.88,15.4C242.79,310,243.41,309.17,243.81,309.65Z"/><path class="cls-23" d="M122.74,304.8l4.28-3.5c-.07.26.09-.17,0,.11-1.42,9.44.38,18.75,4.18,27.54,1.24-1.14,2.45-1.52,3.7-2.65a54,54,0,0,0,9.36,18.53c1.17-1.72,2.24-2.39,3.41-4.1l5.46,11.56c.82-1,2.17-1.73,3-2.67,1.36,3.24,3.41,6.94,4.76,10.18,1.31-1.37,3.17-2.46,4.48-3.82.21,4.53,3.69,8.67,8,10.58.44-1.38,1.21-2.72,1.65-4.1,2.79,2.18,5.28,4.26,8.08,6.44,1-1.93,2.5-3.85,3.52-5.79,2.13,2,4.87,3.93,7,5.89,1.52-2.21,3.11-4.71,4.63-6.92.83,1.7,1.33,2.2,2.17,3.89,9.74-6.55,18.28-15.53,23.43-25.83.22,1,.7,1.89.91,2.93a40.83,40.83,0,0,0,12.44-23.67c.8,1.26,1.43,2.49,2.22,3.75a73.2,73.2,0,0,0,4.08-13.71.47.47,0,0,1,.54.12,73.06,73.06,0,0,1-5.43,26.2c-.8-1.26-1.43-2.49-2.22-3.75A40.86,40.86,0,0,1,224,355.67c-.22-1-.69-1.88-.91-2.92C217.9,363,210.12,373.43,200.38,380c-.83-1.69-2.1-3.6-2.93-5.29-1.52,2.2-3.09,7.28-4.61,9.48-2.13-2-4.89-6.49-7-8.45-1,1.93-2.83,6-3.86,7.89-2.79-2.18-5-6.37-7.74-8.54-.45,1.38-1.21,2.71-1.65,4.1-4.28-1.91-7.76-6.05-8-10.58-1.31,1.36-3.94,3.34-5.24,4.7-1.36-3.24-2.65-7.83-4-11.07-.82.95-2.17,1.73-3,2.67l-5.46-11.56c-1.17,1.72-2.25,2.39-3.41,4.1a54,54,0,0,1-9.37-18.52c-1.25,1.13-2.45,1.51-3.7,2.64-3.79-8.79-8.68-18.22-4.18-27.54.12-.25-.12.16,0-.11l-4.28,3.51a45,45,0,0,1,.77-13.22C122.72,304.4,122.73,304.6,122.74,304.8Z"/><path class="cls-23" d="M126.25,314c0-.27-.12.16,0-.11l-4.28,3.51a41.3,41.3,0,0,1,4.73-23.83c-1.09.65-2.1,1.31-3.18,2-1.07-4.41,2.17-9,6.37-11.09s9.11-2.31,13.84-2.34c26.86-.19,53.54,3.55,80.07,7.44,4.92.72,10.09,1.55,14,4.49a14.07,14.07,0,0,1,4.88,15.4c.39.48,1-.36,1.41.12a72.94,72.94,0,0,1-4.24,23.08c-1.24-.85-2.15-5.34-3.43-6.24-1.95,4.87-4.73,11-10.33,12.28-.13-2-1.44-5.63-3.35-6.7-.91,4.79-6.72,11.53-12,12.45a10.06,10.06,0,0,0-5.13-6.54c-2.49,2.31-3.24,5.6-3.28,8.81-6.23.75-13.14-1.5-15.92-6.55a15.77,15.77,0,0,1-10,9.7c0-4.08-3.28-7.47-7.55-8.9-1.48,1.38-3.12,3.13-4.6,4.5-2.52-2.14-4.64-5-4.43-8.13-2.16,1.51-4.74,2.66-6.9,4.18-3.95-2.76-10.21-8.78-9.12-13.14-3.65.39-2.79,5.3-5.87,5.1-1.7-2.38-3.12-5-3-7.82-2.56.48-4.71,1.53-5.79,3.66-3.21-2.76-4.13-8.66-1.27-11.71a14.59,14.59,0,0,0-2,.13C125.94,316.49,126.07,315.25,126.25,314Z"/><path class="cls-7" d="M215.55,256.54a77.65,77.65,0,0,1,31.5,6.32,4.21,4.21,0,0,1-4.39,2.78c6.81,1.73,13.66,6.28,16.35,12.75-1.3-.11-2,.44-3.27.34,5.67,3.4,9.58,9.72,10.74,16.2-2.75-.9-4.39-.94-7.13-1.84,3,7.67,4.62,17,1.5,24.53-2.75-1.09-3.68-1-6.44-2.13a36.21,36.21,0,0,1-8.86,14.78c-2.63-2-5.09-3.88-7.71-5.91-2,5.64-6,10-11.82,11.45a8.27,8.27,0,0,0-3.62-6.14,14.18,14.18,0,0,1-11,11.34,11.54,11.54,0,0,0-5.36-7.59c-2.6,2.67-3.37,6.49-3.41,10.21-6.5.87-13.71-1.76-16.62-7.61-1.51,4.94-5.5,9.59-10.42,11.23,0-4.73-3.43-8.67-7.88-10.33-1.55,1.59-3.26,3.62-4.8,5.21-2.63-2.49-4.85-5.84-4.63-9.44-2.26,1.75-4.94,3.08-7.2,4.84-4.12-3.2-6.76-9.49-5.63-14.55-3.8.44-8,2-10,5.21-1.77-2.77-3.25-5.8-3.11-9.07-2.67.54-4.9,1.76-6,4.23-3.36-3.21-4.33-10.05-1.34-13.59a18.65,18.65,0,0,0-10.22,3.4c-1.28-5-.2-10.69,3.66-14.07a9.23,9.23,0,0,0-10.08,2.32c-1-3.54-.61-8.14,2.54-10.08-3.1.1-6.26-1.52-8.87-3.21,2.6-1.83,4.81-4.19,7.41-6a13.64,13.64,0,0,1-9-9.61c2.22.88,4.76-.32,6.77-1.57-2-.73-3-2.55-4.92-3.28a35.09,35.09,0,0,1,17.9-4.47c-2.61-2.19-5.1-3.45-8.5-3.1,9.21-4.33,18.78-6,28.71-3.68,21.16-2.22,42.06-1.53,63.27.36C207,257.05,212.16,256.58,215.55,256.54Z"/><path class="cls-23" d="M260.93,284.71c.55.18,1,.32,1.51.44a25.35,25.35,0,0,1,4,9.78c-1.1-.36-2-.58-2.9-.78A49,49,0,0,0,260.93,284.71Z"/><path class="cls-23" d="M106.5,271.3a12.71,12.71,0,0,0,4.45,2.42c-2.33,1.64-4.37,3.69-6.63,5.42a13.81,13.81,0,0,1-3.95-6.65C102.36,273.28,104.61,272.39,106.5,271.3Z"/><path class="cls-23" d="M102.22,267.64l.93-.46a14.21,14.21,0,0,0,1.13,1.76A6.81,6.81,0,0,0,102.22,267.64Z"/><path class="cls-23" d="M116.28,304.78a18.65,18.65,0,0,1,10.23-3.4c-3,3.54-2,10.38,1.34,13.59,1.12-2.47,3.36-3.69,6-4.23-.15,3.27,1.33,6.31,3.11,9.07,2.07-3.2,6.22-4.77,10-5.21-1.13,5.06,1.51,11.35,5.64,14.55,2.25-1.75,4.94-3.08,7.19-4.84-.21,3.6,2,6.95,4.63,9.45,1.55-1.59,3.25-3.63,4.8-5.22,4.46,1.66,7.9,5.6,7.89,10.33,4.92-1.64,8.91-6.29,10.41-11.23,2.92,5.85,10.13,8.48,16.63,7.61,0-3.72.81-7.54,3.41-10.21a11.56,11.56,0,0,1,5.35,7.59,14.17,14.17,0,0,0,11-11.34,8.26,8.26,0,0,1,3.61,6.14c5.84-1.49,9.8-5.81,11.83-11.45,2.62,2,5.08,3.88,7.7,5.91A36.1,36.1,0,0,0,256,307.11c2.75,1.1,3.68,1,6.44,2.14,0-.07.05-.14.07-.21a23.44,23.44,0,0,1-1.66,8.58c-2.75-1.09-3.68-1-6.44-2.13a36.21,36.21,0,0,1-8.86,14.78c-2.63-2-5.09-3.88-7.71-5.91-2,5.64-6,10-11.82,11.45a8.27,8.27,0,0,0-3.62-6.14,14.18,14.18,0,0,1-11,11.34,11.54,11.54,0,0,0-5.36-7.59c-2.6,2.67-3.37,6.49-3.41,10.21-6.5.87-13.71-1.76-16.62-7.61-1.51,4.94-5.5,9.59-10.42,11.23,0-4.73-3.43-8.67-7.88-10.33-1.55,1.59-3.26,3.62-4.8,5.21-2.63-2.49-4.85-5.84-4.63-9.44-2.26,1.75-4.94,3.08-7.2,4.84-4.12-3.2-6.76-9.49-5.63-14.55-3.8.44-8,2-10,5.21-1.77-2.77-3.25-5.8-3.11-9.07-2.67.54-4.9,1.76-6,4.23-3.36-3.21-4.33-10.05-1.34-13.59a18.65,18.65,0,0,0-10.22,3.4,15.25,15.25,0,0,1,1.15-10.9A16.38,16.38,0,0,0,116.28,304.78Z"/><path class="cls-23" d="M112.41,283c-2.65,1.63-3.38,5.13-2.92,8.31a18.43,18.43,0,0,1-7.54-3.14c2.45-1.73,4.57-3.91,7-5.69A10.47,10.47,0,0,0,112.41,283Z"/><path class="cls-23" d="M109.87,293a9.22,9.22,0,0,1,10.07-2.32,12.68,12.68,0,0,0-4,7.77,9.5,9.5,0,0,0-7.66,2.93c-.91-3.05-.7-6.89,1.39-9.13C109.73,292.54,109.79,292.79,109.87,293Z"/><path class="cls-23" d="M199,343.63a18,18,0,0,0,3.37-6.2,11.59,11.59,0,0,0,.78,1.33,21,21,0,0,0-.55,4.75A18.05,18.05,0,0,1,199,343.63Z"/><path class="cls-23" d="M174.66,334.1c-.22,3.61,2,7,4.63,9.45,1.54-1.59,3.25-3.62,4.8-5.21l.79.32a16.9,16.9,0,0,1-9.3,8.47,11,11,0,0,0-6.18-9.55C171.16,336.43,173,335.38,174.66,334.1Z"/><path class="cls-23" d="M102,288c2.6-1.83,4.81-4.19,7.41-6a13.61,13.61,0,0,1-9-9.6c2.22.88,4.75-.32,6.77-1.57-2-.73-3-2.55-4.92-3.28a35.06,35.06,0,0,1,17.89-4.47c-2.61-2.19-5.09-3.45-8.49-3.1,9.21-4.33,18.78-6,28.71-3.68,21.16-2.22,42.06-1.53,63.26.36,3.38.3,8.57-.17,12-.21A77.1,77.1,0,0,1,231.74,258c-3.39.05-8.43.5-11.74.2-21.21-1.89-42.11-2.57-63.27-.36-9.93-2.32-11.61-1.31-20.82,3,3.4-.35-2,1.57.61,3.77a35,35,0,0,0-17.9,4.47c2,.73,3,2.55,4.92,3.27-2,1.26-4.55,2.45-6.76,1.58a13.57,13.57,0,0,0,9,9.6c-2.61,1.84-4.82,4.19-7.42,6,2.61,1.68,5.77,3.3,8.87,3.21-3.15,1.94-4,4.83-2.91,8.38,2.42-2.67,7.14-2.09,10.45-.63-3.86,3.38-6.9,6.38-5.62,11.34a14.92,14.92,0,0,1,9.22-2.81c-1.19,6.94.79,11.16,3.36,14.64-2.55.83-9.13,5.19-10.53,7.36-1.77-2.77-1.12-8.85,1.11-12-2.67.55-8.43,1.48-9.55,3.95-2.81-3.81-2.81-10.85,0-14.81-3.61,0-5.06,2.92-8,4.91-1.28-5-.2-10.69,3.65-14.07a9.22,9.22,0,0,0-10.07,2.32c-1.05-3.54-.62-8.14,2.54-10.08C107.73,291.31,104.56,289.69,102,288Z"/><path class="cls-23" d="M196.49,343.31a16.39,16.39,0,0,1-7-3.14,10.62,10.62,0,0,1,2-3A11.89,11.89,0,0,1,196.49,343.31Z"/><path class="cls-23" d="M237.42,325.33a18.79,18.79,0,0,1-4.43,6.54A37,37,0,0,0,237.42,325.33Z"/><path class="cls-23" d="M105.62,266.93c-.76,0-1.5,0-2.25,0,.47-.24.94-.47,1.42-.68Z"/><path class="cls-23" d="M239.92,319.25c2.75,1.09,3.68,1,6.44,2.13,3.12-7.58,1.45-16.86-1.51-24.53,2.75.9,4.39.94,7.13,1.84a24.06,24.06,0,0,0-10.74-16.2c1.31.1,3.6-1.12,4.91-1-2.69-6.46-11.17-10.34-18-12.07,2,.15-2.46-1.43-1.83-3.28-9.9-4.26-14.49-5.94-25.27-5.82-3.39,0-8.58.51-12,.21-21.2-1.89-42.1-2.58-63.26-.36a39.54,39.54,0,0,0-12.71-.88c8.75-3.81,17.82-5.2,27.21-3,21.16-2.22,42.06-1.53,63.26.36,3.38.3,8.57-.17,12-.21a80.6,80.6,0,0,1,32.08,6.46c-.81,1.43-2.23,2.91-4.18,2.76,6.81,1.72,13.36,6.57,16,13a3.59,3.59,0,0,0-3,.35c5.67,3.4,8.82,9.3,10,15.78-2.74-.9-4.38-.94-7.12-1.84,3,7.67,4.62,16.95,1.5,24.53-2.76-1.09-3.68-1-6.44-2.13a36.13,36.13,0,0,1-8.87,14.78c-2.59-2-5-3.84-7.62-5.85A33.74,33.74,0,0,0,239.92,319.25Z"/><path class="cls-23" d="M178.15,346a13.86,13.86,0,0,1-2.57,1.18,9.69,9.69,0,0,0-.49-3A15.21,15.21,0,0,0,178.15,346Z"/><path class="cls-23" d="M200.14,343.67a14.31,14.31,0,0,0,2.53-1.58c0,.47,0,.94,0,1.42A18.67,18.67,0,0,1,200.14,343.67Z"/><path class="cls-23" d="M223.34,328.12c2.49,1.92,4.82,3.68,7.29,5.58a15.64,15.64,0,0,1-4.61,2,8.3,8.3,0,0,0-3.34-5.94Q223,328.94,223.34,328.12Z"/><path class="cls-23" d="M207.91,333.43a8.26,8.26,0,0,1,3.61,6.13A16.37,16.37,0,0,0,222.06,331a14.2,14.2,0,0,1-10.68,9.86,11.06,11.06,0,0,0-3.72-6.35C207.76,334.17,207.84,333.8,207.91,333.43Z"/><path class="cls-24" d="M236.76,261c-3,2-5.44,1.39-9.42.66,1.61,5.43,1.45,10.41-.69,14.31-1.39-2.92-5.44-4.11-7.45-5.33.37,8.66-7.89,26.58-19.06,26.53a19.51,19.51,0,0,0,1.65-8c-3.11,5.72-7.47,7.11-13.72,9-.37-2.78,1.09-1.4-.89-6.52-4.16,4.17-4.17,5.32-5.06,11.13-4.05-2-6.35-6.61-8-9.06-.64,1.34-4.63,6.43-6.11,6.52s-2-.44-3.28-1.12c-8.47-4.4-19.88-20.89-21-34.65a32.74,32.74,0,0,0-9.2,3.59c-.4-3.8-2.53-14.38,1.57-20.65.43.09,5.88-1.62,6.31-1.52C164.93,243.53,182,251,204.64,253c3.61.32,8.06-1.09,11.66-1.4C216.3,251.64,228.78,250.53,236.76,261Z"/><path class="cls-7" d="M138.11,215.58a12.15,12.15,0,0,1,1.08,4.41,3.3,3.3,0,0,1-.1,1.26.74.74,0,0,1-.83.6c-2.26-.43-2.64-.65-6.83-3.51-.24,6.13,2.55,8.39,4.28,10.29,0,3.08-4.48,3.89-8.17,3.82,0,0,5.62,5.45,12.43,6.7-2.5,3.75-5,8.23-3.95,12.47,1.75-3,8.59-5.82,11-6.24,2.25,10.34,8,20.19,19.72,25.91,1.26.61,3.44,2.63,4.88,2.51s3.26,1.31,3.77.28c1.82,1.79,3.8,1.66,5.62,3.45.39-4.41.92-1.26,6-3.31.59,2.08,2.35-2.08,2.93,0,6-1.66,11.61-6.11,14.2-10.52.17,1.82,1,3.3,1.15,5.12,7.91-2.28,12.15-9.95,11.09-16.47,3.16.49,6.68,1.83,8.28,4a19.13,19.13,0,0,0-1.55-9.1,16.5,16.5,0,0,0,1.95-2.33c3.58,1.21,10.43,1.25,14.91-1.25-5.72-1.19-10.91-6.19-11.51-8.47a3.14,3.14,0,0,1,2.61-4.71c3.62.3,1,4,6.87,6-1.57-2.19,1.69-15.08-8.33-15.94-2.69.29-3.39-1.79-1.6-4.15,3.34-3.72,3.39-8.92,2.75-13.5-.62,1.72-2.73,4-4,4.45-3.62,1.38-6,.38-7.5-1.9-1.54-1.7-2.13-5.78-1.42-8.14a20.92,20.92,0,0,0,.26-11.1c-.94,2.55-2.31,4.65-5.28,3.74-.86-.3-1.95-.74-2.87-3.05a41.26,41.26,0,0,0-19.36-21.48,3.91,3.91,0,0,0-2.14-.45c-1.52.13-1.56,1.07-1.94,2.32-1.58-1.74-3.53-3.06-5.12-4.8,0,4.7-1.41,9.54-5.32,12.14-1.69-1.55-2.24-4.36-2-6.41A19.71,19.71,0,0,0,163.76,179c-1.06-1.53-1.16-3.39-1.28-5.32-5.27,2.63-8.12,9.15-8,15.22.21,2.34-.6,2.91-1.64,2.79a8.57,8.57,0,0,1-5-3.17,26.09,26.09,0,0,0,1.61,9.48c-2.88-.29-4.64-2.53-5.75-4.35a16.1,16.1,0,0,0,.28,7.09c-2.86-.13-3.76-.57-8.29.75a17,17,0,0,0-9.23,7c4.79,0,7.85,1.27,9.93,4.28A23.63,23.63,0,0,1,138.11,215.58Z"/><path class="cls-23" d="M224.63,269.34c-1.6-2.16-5.12-3.5-8.28-4,1.06,6.52-3.18,18.85-11.09,21.13-.18-1.82-1-3.3-1.15-5.13-2.59,4.42-7.61,7.54-13.58,9.19-.58-2.08-1.35-4.14-1.93-6.22-5,2.05-7.19,6.46-7.58,10.87-1.82-1.79-3.42-5-7-8.1-.52,1-2.79,3.31-4.24,3.43a8.57,8.57,0,0,1-4.28-1c-11.69-5.72-16.77-18.57-19-28.9-2.81,1.42-6,2.51-8.85,3.93-1.05-4.24-.91-9.74,1.7-13.83,0,0,2.56-4.7,7.8-5.34,2.25,10.33,10.69,22.36,22.38,28.08a5.18,5.18,0,0,0,3.3.73c1.45-.12,7,1.47,7.5.44,1.81,1.79-1.26.81.55,2.61.4-4.42,2.67-9,7.72-11.07.58,2.08,1.22,4.34,1.8,6.42,6-1.65,11-4.77,13.57-9.19.18,1.83,1,3.3,1.16,5.13,7.9-2.28,12.15-10,11.08-16.48,3.16.49,6.35,1.43,8,3.59.32-3-.86-8.49-2.18-11.92,0,0,5.3,2.51,9.76,2a5.07,5.07,0,0,1-3.11,1.62,23.52,23.52,0,0,0,1.58,2.17,17.53,17.53,0,0,0,10.26,6.18c-4.48,2.5-12.18,4.24-17.41,3.21C223,258.86,226.07,264.47,224.63,269.34Z"/><path class="cls-14" d="M151.29,231.17a9.28,9.28,0,0,1-8.26-3.91,6.87,6.87,0,0,1-1.16-5.53A5.38,5.38,0,0,1,151,219.4,74.62,74.62,0,0,1,151.29,231.17Z"/><path class="cls-14" d="M214.61,232a9.26,9.26,0,0,0,8.15-4.13,6.85,6.85,0,0,0,1-5.56,5.39,5.39,0,0,0-9.15-2.09A74.72,74.72,0,0,0,214.61,232Z"/><path class="cls-7" d="M159.79,185.08a10.19,10.19,0,0,0,3.56,6.42,5.74,5.74,0,0,1,4.84-4.89,3.49,3.49,0,0,1,.61,4.4,8.78,8.78,0,0,0,6.42-3.24,4.92,4.92,0,0,1,.08,4.13c4-.83,6.68-3.75,8.84-6.91a16,16,0,0,0,9.29,11.7c.45-4.23,2.24-8.41,6-10.87a7.85,7.85,0,0,1,.94,5.87,13.32,13.32,0,0,0,6.85-6.73l.46,0a12.75,12.75,0,0,1-7.86,11.54,7.9,7.9,0,0,0-.95-5.87c-3.79,2.46-5.57,6.64-6,10.87a16,16,0,0,1-9.29-11.7c-2.16,3.17-4.88,6.08-8.85,6.91a4.85,4.85,0,0,0-.08-4.13,8.78,8.78,0,0,1-6.42,3.24,3.49,3.49,0,0,0-.6-4.4,5.72,5.72,0,0,0-4.84,4.89A10,10,0,0,1,159.79,185.08Z"/><path class="cls-23" d="M201.1,263.7c4-1.63,9.47-9,10.79-13.28a40.8,40.8,0,0,0,1.39-11.83,134.35,134.35,0,0,0-2.59-26.85c-17.07,1-38.5,2.31-55.52.52-2.06,14.48-3.4,29.31-.11,39.65,0,0,3.15,10.48,18.06,13.94A45.06,45.06,0,0,0,201.1,263.7Z"/><path class="cls-25" d="M158.34,194s21.53-6.12,49.9-.73L211,212.73s-25.11,14.14-55.81-.37Z"/><path class="cls-26" d="M167,207.35a.08.08,0,0,1-.11,0,3,3,0,0,0-.46-.17,1.13,1.13,0,0,0-1.36.68.13.13,0,0,0,0,.06c-.22,1.07-.3,1.62-.56,2.69a.11.11,0,0,1-.15.07l-1.31-.46a.14.14,0,0,1-.1-.15c.49-2,.55-3,1.14-4.89a.12.12,0,0,1,.15-.07l1.16.4a.11.11,0,0,1,.09.14l0,.31c.42-.37.86-.26,1.4-.09a1.59,1.59,0,0,1,.4.16.1.1,0,0,1,.05.11C167.13,206.65,167.07,206.88,167,207.35Z"/><path class="cls-26" d="M170,212.42a3.26,3.26,0,0,1-2-1.22,2.6,2.6,0,0,1-.47-2.1l0-.13a2.53,2.53,0,0,1,.6-1.3,2.2,2.2,0,0,1,1.16-.69,3.05,3.05,0,0,1,1.5,0,2.79,2.79,0,0,1,1.76,1.08,2.64,2.64,0,0,1,.38,2c0,.14,0,.21-.06.35a.23.23,0,0,1-.29.17c-1.4-.26-2.11-.42-3.53-.78a1.35,1.35,0,0,0,.32.93,1.58,1.58,0,0,0,.92.54,1.82,1.82,0,0,0,1.34-.14.28.28,0,0,1,.36.09c.15.21.22.32.38.53a.21.21,0,0,1-.06.3,2.4,2.4,0,0,1-.94.36A3.39,3.39,0,0,1,170,212.42Zm.61-4.31a1.06,1.06,0,0,0-.81.1,1.23,1.23,0,0,0-.52.71c.88.22,1.32.32,2.2.51,0,0,0-.07,0-.11a1.06,1.06,0,0,0-.16-.78A1.21,1.21,0,0,0,170.64,208.11Z"/><path class="cls-26" d="M181.13,210a1,1,0,0,1,.37-.8,1.33,1.33,0,0,1,.89-.29c.37,0,.84,0,1.07.17s.17.6.18.93v.21a1,1,0,0,1-.35.81,1.36,1.36,0,0,1-.92.3,1.37,1.37,0,0,1-.92-.33,1.24,1.24,0,0,1-.32-1Z"/><path class="cls-26" d="M187.62,213.72a2.13,2.13,0,0,1-1.77-.62,3,3,0,0,1-.73-2,3.1,3.1,0,0,1,.52-2,2,2,0,0,1,1.55-.83,2.41,2.41,0,0,1,1.37.22c-.1-.92-.14-1.38-.24-2.3a.14.14,0,0,1,.13-.15l1.13-.13a.14.14,0,0,1,.16.12c.38,2.89.57,4.33,1,7.22,0,.07-.06.14-.14.16l-1.31.16m-2.58-2.46a1.88,1.88,0,0,0,.36,1.12,1,1,0,0,0,.89.33h0a1,1,0,0,0,.93-1.05c-.06-.51-.08-.77-.14-1.28a1,1,0,0,0-1.06-.85h0C186.94,209.44,186.61,210,186.69,211.11Z"/><path class="cls-26" d="M195.23,212.64a3.18,3.18,0,0,1-2.29-.29,2.35,2.35,0,0,1-1.13-1.74l0-.13a3,3,0,0,1,.09-1.45,2.39,2.39,0,0,1,.75-1.11,2.83,2.83,0,0,1,1.26-.59,2.55,2.55,0,0,1,1.91.27,2.73,2.73,0,0,1,1.13,1.72l.1.36a.2.2,0,0,1-.16.25c-1.36.34-2.05.49-3.44.74a1.25,1.25,0,0,0,.62.73,1.54,1.54,0,0,0,1,.11,1.82,1.82,0,0,0,1.15-.69.24.24,0,0,1,.33-.07l.58.34a.19.19,0,0,1,.08.26,2.23,2.23,0,0,1-.7.74A3.5,3.5,0,0,1,195.23,212.64Zm-1.11-4.2a1,1,0,0,0-.66.42,1.54,1.54,0,0,0-.2.87c.85-.16,1.27-.24,2.1-.43l0-.11a1,1,0,0,0-.43-.65A1.08,1.08,0,0,0,194.12,208.44Z"/><path class="cls-26" d="M200.55,209.35c0-1.42-.07-2.13-.14-3.54a.21.21,0,0,1,.14-.21l1.11-.39a.14.14,0,0,1,.19.12c.05,2.1.05,3.15,0,5.26a.21.21,0,0,1-.16.2c-.46.16-.69.23-1.16.37a.23.23,0,0,1-.25-.06c-1.35-1.66-2-2.5-3.19-4.22a.15.15,0,0,1,.09-.23l1.12-.32a.22.22,0,0,1,.24.08C199.31,207.6,199.71,208.19,200.55,209.35Z"/><path class="cls-26" d="M176,213.46a2.1,2.1,0,0,1-1.6-1,3.56,3.56,0,0,1,.59-4,2.09,2.09,0,0,1,1.71-.5,2.47,2.47,0,0,1,1.3.48c.09-.92.14-1.38.22-2.3a.15.15,0,0,1,.16-.12l1.14.09a.14.14,0,0,1,.13.15c-.2,2.91-.3,4.36-.51,7.26a.16.16,0,0,1-.17.13l-1.32-.09m-2-2.91a1.89,1.89,0,0,0,.14,1.16,1,1,0,0,0,.79.5h0a1,1,0,0,0,1.13-.84c.05-.52.08-.77.13-1.28a1,1,0,0,0-.87-1h0C176.23,209.15,175.78,209.64,175.63,210.73Z"/><path class="cls-7" d="M209,190.37c-1.23,10.84-4.7,12.17-6.57,13.61-2.63-2.48-3.45-6.7-3.45-8.55-1,.12-3.9,3.25-3.35,8.28-3.16-.19-9.17,0-12-7.35-4.12,5.57-11.29,6.46-14.79,6.14.69-1.38,3.24-4.64,2.42-6-1.82,2.26-7.07,5.06-10.14,5.12.43-2.25.91-4.57,0-6.23-3.16.28-3.9,4.86-4.2,6.55-5.06-4.33-2-14.56,1.57-20"/><path class="cls-23" d="M160.31,184.64a10.26,10.26,0,0,0,3.56,6.42,5.74,5.74,0,0,1,4.85-4.89,3.48,3.48,0,0,1,.6,4.39,8.81,8.81,0,0,0,6.42-3.23,4.92,4.92,0,0,1,.08,4.13c4-.83,6.69-3.75,8.84-6.91a15.93,15.93,0,0,0,9.3,11.69c.45-4.22,2.23-8.41,6-10.86a7.83,7.83,0,0,1,.94,5.86,13.32,13.32,0,0,0,6.86-6.72l.46,0a12.76,12.76,0,0,1-7.87,11.53,7.84,7.84,0,0,0-1-5.86c-3.78,2.45-5.57,6.64-6,10.86a15.94,15.94,0,0,1-9.29-11.69c-2.16,3.16-4.87,6.08-8.84,6.91a4.92,4.92,0,0,0-.08-4.13,8.81,8.81,0,0,1-6.42,3.23,3.5,3.5,0,0,0-.61-4.39,5.73,5.73,0,0,0-4.84,4.89A10,10,0,0,1,160.31,184.64Z"/><path class="cls-27" d="M218.28,221.11s3.46-.26,3.95,2.68c0,0,.35,3.19-3.31,5C218.92,228.78,223.38,222.52,218.28,221.11Z"/><path class="cls-27" d="M147.52,220.11s-3.47-.26-4,2.68c0,0-.34,3.19,3.32,5C146.88,227.78,142.41,221.52,147.52,220.11Z"/><path class="cls-28" d="M193.68,255.67a23.46,23.46,0,0,0,4.55-6.63,9.69,9.69,0,0,1,3,5.55.73.73,0,0,1-.63.85C198.33,255.67,195.89,255.41,193.68,255.67Z"/><path class="cls-28" d="M165.33,255.42a7.57,7.57,0,0,1,1.88-5.2,35.71,35.71,0,0,0,7,6.28c-2,.25-5.52.27-7.41.27A1.43,1.43,0,0,1,165.33,255.42Z"/><path class="cls-29" d="M178.17,243.68c-.91.42-1.75,1.28-2.74,1.1a1.92,1.92,0,0,1-1.25-2.39,4.39,4.39,0,0,1,1.91-2.28,13.81,13.81,0,0,1,12.41-1.56,4.67,4.67,0,0,1,2.8,2.17c.51,1.11,0,2.71-1.2,2.92s-2.3-1-3.54-1a4.56,4.56,0,0,0-2.34,1.35C181.86,245.9,180.77,242.47,178.17,243.68Z"/><path class="cls-14" d="M177.69,242.49c-.91.42-1.75,1.27-2.74,1.1a1.92,1.92,0,0,1-1.25-2.39c.27-1,1.44-1.67,2.17-2.38,5-4.84,7.63-4.37,11.53-1.81,1,.66,2.92,1.42,3.42,2.52s0,2.71-1.2,2.92-2.3-1-3.54-1a4.52,4.52,0,0,0-2.34,1.35C181.38,244.71,180.29,241.28,177.69,242.49Z"/><path class="cls-29" d="M182.61,236.61c.86-.06,1.64.64,2,.76s.82.67.29,1.07-3.18.43-4,.2-.41-1.07.11-1.24C181.64,237.19,181.93,236.66,182.61,236.61Z"/><path class="cls-14" d="M160.62,252.9a3.83,3.83,0,0,0,1.56,2.37,5.51,5.51,0,0,0,2.58,1,29.78,29.78,0,0,0,5.84-.23c4-.33,8-.54,12-.72s8-.25,12-.23l3,0a21.66,21.66,0,0,0,2.92-.07,6.71,6.71,0,0,0,2.7-.8,4.35,4.35,0,0,0,1.91-2.12,4.24,4.24,0,0,1-1.55,2.63,7.13,7.13,0,0,1-2.86,1.39,48,48,0,0,1-6.06.72c-4,.34-8,.54-12,.72s-8,.25-12,.23a24.49,24.49,0,0,1-6.15-.46,6.11,6.11,0,0,1-2.76-1.63A3.82,3.82,0,0,1,160.62,252.9Z"/><path class="cls-30" d="M179.89,276.34a35.7,35.7,0,0,1,3.07,3,6.9,6.9,0,0,1,1.17,6,4.62,4.62,0,0,0,2-3.31l.14,1.95c3.9-4.68,6.41-11.43,5-17.36,0-.13-1.07.08-1.21.1-.85.1-1.71.29-2.56.38a37.21,37.21,0,0,1-9.4-.19c-1.4-.19-1.4-.23-1.4-.09a26.27,26.27,0,0,0,.26,4.35A11.22,11.22,0,0,0,179.89,276.34Z"/><path class="cls-31" d="M190.15,266.63c-.37,0-.79.16-1.21.17a19,19,0,0,1-2.51,10.38,5,5,0,0,0-.35-2.51,19,19,0,0,1-1.22,5.56,8,8,0,0,0-.62-3.39l-.15,1.23a5.35,5.35,0,0,0-2.75-2.81A13.24,13.24,0,0,1,178,273.1a5.17,5.17,0,0,1-.42-.51,11.09,11.09,0,0,0,2.35,3.61,34.25,34.25,0,0,1,3.07,2.95,6.89,6.89,0,0,1,1.17,6,4.6,4.6,0,0,0,2-3.3l.14,1.94c3.9-4.68,6.42-11.27,5-17.21C191.29,266.42,190.46,266.62,190.15,266.63Z"/><path class="cls-31" d="M181.07,273.8a4.7,4.7,0,0,1-.59-1.16c.83.8,1.63,1.65,2.38,2.53a16.35,16.35,0,0,0-.56-1.93l.47.62a11.92,11.92,0,0,1-1.36-3.65,4.86,4.86,0,0,0,0,2.51,10.41,10.41,0,0,1-1.5-3.72,8.11,8.11,0,0,0,0,2.78,19.22,19.22,0,0,0-.87-2.14,11,11,0,0,0-.52-1.88c-.56.73-.28,2.23,0,3A5.26,5.26,0,0,0,181.07,273.8Z"/><path class="cls-11" d="M155,218.68l2.77,0s4.53-6.32,13.33-3.82c8.42,2.4,9.25,11.31,7.95,12.75a7.22,7.22,0,0,1,7.16-.1c-1.76-3.48,2.28-12.74,10.61-13.07,6.6,0,8.27,1.35,10.7,4.14,1.16,0,2.83.05,2.83.05l-.14,2.47-1.76.09A11.41,11.41,0,0,1,197,237.89c-6-.58-8.27-3.81-8.88-4.7-1.21.28-4.47-1.83-3.53-4.93a7.67,7.67,0,0,0-3.59,0c.36.94.38,2.82-1.86,4.28-.69.28-1.17.61-1.67.14-2.19,2.33-3.91,5.3-11.72,5.3-4.79-.83-13.4-6.14-9-16.74a6.1,6.1,0,0,1-1.67-.14Z"/><path class="cls-30" d="M155,218.71c0-.05-.09-.06-.09,0,0,.83,0,1.67.08,2.49,0,.09.19.13.19,0C155.18,220.38,155.1,219.53,155,218.71Z"/><path class="cls-30" d="M157.53,221.29s0,0,0,0a.13.13,0,0,0-.11-.12,10.33,10.33,0,0,0-2.08,0,.07.07,0,0,0,0,.13,9.74,9.74,0,0,0,2.09.1h.05l0,.4c0,.08.16.09.15,0Z"/><path class="cls-30" d="M169.19,214.49a12,12,0,0,0-11.47,4h0a21,21,0,0,0-2.63.16c-.07,0,0,.09,0,.09a21.71,21.71,0,0,0,2.55,0h.1c.08,0,.09-.07.07-.13a13.37,13.37,0,0,1,5.12-3.35,13.67,13.67,0,0,1,6.25-.56C169.32,214.72,169.33,214.52,169.19,214.49Z"/><path class="cls-30" d="M157.54,232.7a11,11,0,0,1-.66-11.42c0-.05-.07-.11-.1-.06a10.38,10.38,0,0,0,.57,11.6C157.45,232.94,157.63,232.83,157.54,232.7Z"/><path class="cls-30" d="M179,228.65a12.1,12.1,0,0,1-3.86,6.39,10.91,10.91,0,0,1-3.49,2,17.61,17.61,0,0,1-4,.67s0,.08,0,.09c2.61.39,5.57-.85,7.59-2.43a11.07,11.07,0,0,0,4-6.62C179.27,228.61,179,228.51,179,228.65Z"/><path class="cls-30" d="M186.11,227.21a7.17,7.17,0,0,0-6.65,0c1.5-5.15-3.2-10.61-7.41-12.08-.06,0-.08.05,0,.07a17.11,17.11,0,0,1,5.62,4.8,9.15,9.15,0,0,1,1.35,7.51c-.05.19.24.36.32.15s.05-.16.08-.24a7.4,7.4,0,0,1,6.6.06C186.2,227.62,186.31,227.31,186.11,227.21Z"/><path class="cls-30" d="M166.63,237.85a12.47,12.47,0,0,1-8.32-3.94s-.12,0-.08.05a10.82,10.82,0,0,0,8.41,4.19C166.82,238.15,166.79,237.87,166.63,237.85Z"/><path class="cls-30" d="M158.21,218.72a7,7,0,0,1-2.58.51l-.28-.24a2.1,2.1,0,0,0-.3-.22c-.06,0-.11,0-.07.08a2.27,2.27,0,0,0,.26.28l.12.11c-.06,0,0,.08,0,.1h.08c0,.3-.06.62-.08.93a4.83,4.83,0,0,0,0,.85c0,.12.22.16.25,0a4,4,0,0,0,0-.85,6.54,6.54,0,0,0-.06-.89.1.1,0,0,0,.14,0,4.71,4.71,0,0,0,2.7-.4C158.54,218.92,158.36,218.66,158.21,218.72Z"/><path class="cls-30" d="M159.36,219.61c-.14.15.11.35.25.22a10.53,10.53,0,0,1,10.53-2.42,10.09,10.09,0,0,1,6.94,8.47,9.33,9.33,0,0,1-5.47,9.16,10.39,10.39,0,0,1-10.72-1.42,9,9,0,0,1-2.24-11.25c0-.08-.09-.11-.13,0a9.08,9.08,0,0,0,1.16,10.43,10.7,10.7,0,0,0,10.78,3,9.83,9.83,0,0,0,6.95-8.17,10.09,10.09,0,0,0-5.8-10A10.8,10.8,0,0,0,159.36,219.61Z"/><path class="cls-30" d="M165.71,216.67a8.41,8.41,0,0,0-7.8,7.15c0,.05.07.07.08,0a8.9,8.9,0,0,1,7.76-6.9C165.94,216.92,165.87,216.66,165.71,216.67Z"/><path class="cls-30" d="M210.3,218.71c0-.05.1-.06.1,0,0,.83,0,1.67-.09,2.49,0,.09-.19.13-.19,0C210.13,220.38,210.22,219.53,210.3,218.71Z"/><path class="cls-30" d="M207.78,221.29l0,0a.15.15,0,0,1,.11-.12,10.43,10.43,0,0,1,2.09,0,.07.07,0,0,1,0,.13,9.83,9.83,0,0,1-2.1.1h0c0,.13,0,.26,0,.4s-.17.09-.15,0S207.75,221.45,207.78,221.29Z"/><path class="cls-30" d="M196.12,214.49a12,12,0,0,1,11.48,4h0a21,21,0,0,1,2.63.16c.06,0,0,.09,0,.09a21.54,21.54,0,0,1-2.54,0h-.1a.09.09,0,0,1-.08-.13,13.37,13.37,0,0,0-5.12-3.35,13.61,13.61,0,0,0-6.24-.56A.11.11,0,1,1,196.12,214.49Z"/><path class="cls-30" d="M207.77,232.7a11,11,0,0,0,.67-11.42c0-.05.06-.11.09-.06a10.36,10.36,0,0,1-.57,11.6C207.87,232.94,207.68,232.83,207.77,232.7Z"/><path class="cls-30" d="M186.33,228.65a12.08,12.08,0,0,0,3.85,6.39,11.07,11.07,0,0,0,3.5,2,17.52,17.52,0,0,0,4,.67,0,0,0,0,1,0,.09c-2.61.39-5.58-.85-7.59-2.43a11.08,11.08,0,0,1-4-6.62C186.05,228.61,186.29,228.51,186.33,228.65Z"/><path class="cls-30" d="M193.27,215.16c.06,0,.08.05,0,.07a17.14,17.14,0,0,0-5.63,4.8,9.14,9.14,0,0,0-1.34,7.51c0,.19-.25.36-.32.15C184.08,222.39,188.73,217.14,193.27,215.16Z"/><path class="cls-30" d="M198.69,237.85a12.47,12.47,0,0,0,8.32-3.94s.11,0,.07.05a10.78,10.78,0,0,1-8.4,4.19C198.49,238.15,198.52,237.87,198.69,237.85Z"/><path class="cls-30" d="M207.1,218.72a7.06,7.06,0,0,0,2.58.51L210,219a2.18,2.18,0,0,1,.31-.22c.06,0,.1,0,.07.08a3.45,3.45,0,0,1-.26.28l-.12.11s0,.08,0,.1h-.09a5.74,5.74,0,0,1,.08.93,4,4,0,0,1,0,.85c0,.12-.22.16-.24,0a4,4,0,0,1,0-.85,8.67,8.67,0,0,1,.06-.89.09.09,0,0,1-.13,0,4.71,4.71,0,0,1-2.7-.4C206.78,218.92,207,218.66,207.1,218.72Z"/><path class="cls-30" d="M206,219.61c.14.15-.1.35-.24.22a10.54,10.54,0,0,0-10.53-2.42,10.12,10.12,0,0,0-7,8.47A9.36,9.36,0,0,0,193.7,235a10.41,10.41,0,0,0,10.73-1.42,9,9,0,0,0,2.24-11.25c0-.08.09-.11.13,0a9.08,9.08,0,0,1-1.17,10.43,10.69,10.69,0,0,1-10.77,3,9.84,9.84,0,0,1-7-8.17,10.12,10.12,0,0,1,5.8-10A10.8,10.8,0,0,1,206,219.61Z"/><path class="cls-30" d="M199.61,216.67a8.41,8.41,0,0,1,7.8,7.15c0,.05-.07.07-.08,0a8.91,8.91,0,0,0-7.76-6.9C199.38,216.92,199.44,216.66,199.61,216.67Z"/><path class="cls-30" d="M186.37,228.65a8.26,8.26,0,0,0-7.57.2c-.07,0,0,.16.08.13a8.74,8.74,0,0,1,7.35,0C186.48,229.12,186.61,228.76,186.37,228.65Z"/><path class="cls-30" d="M181.06,228.37s-.12,0-.09,0c.52,1.14-1.78,5.33-3.27,4.17-.13-.09-.27.08-.14.17,1,.77,1.94-.28,2.49-1.1S181.78,229.23,181.06,228.37Z"/><path class="cls-30" d="M188.13,233.16a2.76,2.76,0,0,1-2.64-1.59c-.57-.85-1.52-2.31-.75-3.3a.05.05,0,0,0-.08-.07c-.94.78,0,2.4.45,3.22.64,1.11,1.67,2.32,3.09,2C188.33,233.35,188.25,233.15,188.13,233.16Z"/><path class="cls-30" d="M157.19,221.36a9,9,0,0,0-1.58,5c0,.06.09.09.09,0a8.5,8.5,0,0,1,1.67-4.85C157.46,221.4,157.26,221.25,157.19,221.36Z"/><path class="cls-30" d="M181.27,228.28c-.11-.21-.48-.12-.36.11.81,1.55-1.56,4.69-3.27,4.14,0-.12-.2-.21-.28-.09a13,13,0,0,1-10.72,5.49c-.09,0,0,.11,0,.12a12.26,12.26,0,0,0,10.94-5.36C179.39,233.94,182,229.82,181.27,228.28Z"/><path class="cls-30" d="M188,233a2.81,2.81,0,0,1-2.62-1.68c-.52-.89-1.12-1.91-.72-3,0-.07-.08-.15-.13-.08-.75,1,.14,2.53.7,3.46s1.66,1.92,2.87,1.59C188.29,233.31,188.16,233,188,233Z"/><path class="cls-30" d="M180.14,228.84a.65.65,0,0,0-.77-.14c-.07,0,0,.13,0,.13.9,0,.46,1,.25,1.49a1.44,1.44,0,0,1-1.44,1,.14.14,0,0,0,0,.28c1,.16,1.61-.78,1.85-1.63C180.13,229.63,180.34,229.14,180.14,228.84Z"/><path class="cls-30" d="M187.12,231.91a4.66,4.66,0,0,1-1.05-1.25c-.26-.45-.87-1.67-.27-2.07.07-.05,0-.16-.09-.12-.57.31-.3,1.11-.14,1.59a4.75,4.75,0,0,0,1.36,2.08A.15.15,0,1,0,187.12,231.91Z"/><path class="cls-30" d="M156.84,220a.38.38,0,0,0-.49,0,.36.36,0,0,0,0,.42.34.34,0,0,0,.29.22.38.38,0,0,0,.39-.22A.42.42,0,0,0,156.84,220Z"/><path class="cls-30" d="M209.16,220.13a.44.44,0,0,0-.53-.29.39.39,0,0,0-.11.06.32.32,0,0,0-.14.16.5.5,0,0,0,0,.32.44.44,0,0,0,.51.25A.39.39,0,0,0,209.16,220.13Z"/><path class="cls-30" d="M167.42,216.67a9.39,9.39,0,0,0-9.83,8.71c-.69,7.28,5.21,10.47,9.83,10.58a9.74,9.74,0,0,0,9.94-9.3C177.83,220.55,171,217,167.42,216.67Z"/><path class="cls-30" d="M198.45,216.72c-3.08-.05-9.88,2.29-10.36,9.83s6.85,9.51,9.78,9.46,9.61-1.28,10-9.35S201.53,216.77,198.45,216.72Z"/><g class="cls-13"><path class="cls-11" d="M188.34,229.5a10.35,10.35,0,0,0,1.34,3.27l15.1-14a10.53,10.53,0,0,0-3.16-1.58Z"/><path class="cls-11" d="M205.69,219.54l-15.33,14.2a10.13,10.13,0,0,0,.88,1l15.36-14.22A10.21,10.21,0,0,0,205.69,219.54Z"/></g><g class="cls-13"><path class="cls-11" d="M157.46,229.62a10.5,10.5,0,0,0,1.34,3.28l15.1-14a10.44,10.44,0,0,0-3.16-1.59Z"/><path class="cls-11" d="M174.81,219.66l-15.33,14.2a9.06,9.06,0,0,0,.88,1l15.36-14.23C175.43,220.28,175.13,220,174.81,219.66Z"/></g></g></g></g></svg>